solid OpenSCAD_Model
  facet normal -1 0 0
    outer loop
      vertex 0 109.2 7.5
      vertex 0 109.2 0
      vertex 0 9.2 7.5
    endloop
  endfacet
  facet normal -1 0 0
    outer loop
      vertex 0 0 0
      vertex 0 0 49
      vertex 0 9.2 7.5
    endloop
  endfacet
  facet normal -1 0 0
    outer loop
      vertex 0 0 0
      vertex 0 9.2 7.5
      vertex 0 109.2 0
    endloop
  endfacet
  facet normal -1 0 0
    outer loop
      vertex 0 9.2 7.5
      vertex 0 0 49
      vertex 0 9.2 49
    endloop
  endfacet
  facet normal 0 -1 0
    outer loop
      vertex 5 0 44
      vertex 0 0 0
      vertex 50 0 0
    endloop
  endfacet
  facet normal 0 -1 0
    outer loop
      vertex 5 0 44
      vertex 5 0 49
      vertex 0 0 49
    endloop
  endfacet
  facet normal 0 -1 0
    outer loop
      vertex 50 0 49
      vertex 15 0 49
      vertex 50 0 0
    endloop
  endfacet
  facet normal 0 -1 0
    outer loop
      vertex 15 0 49
      vertex 15 0 44
      vertex 50 0 0
    endloop
  endfacet
  facet normal 0 -1 0
    outer loop
      vertex 0 0 49
      vertex 0 0 0
      vertex 5 0 44
    endloop
  endfacet
  facet normal 0 -1 0
    outer loop
      vertex 15 0 44
      vertex 5 0 44
      vertex 50 0 0
    endloop
  endfacet
  facet normal 0 0 -1
    outer loop
      vertex 10 87.95 0
      vertex 50 0 0
      vertex 8.23223 88.6822 0
    endloop
  endfacet
  facet normal 0 0 -1
    outer loop
      vertex 10 105.45 0
      vertex 0 109.2 0
      vertex 50 109.2 0
    endloop
  endfacet
  facet normal 0 0 -1
    outer loop
      vertex 0 0 0
      vertex 0 109.2 0
      vertex 7.5 15.45 0
    endloop
  endfacet
  facet normal 0 0 -1
    outer loop
      vertex 0 0 0
      vertex 7.5 15.45 0
      vertex 8.23223 13.6822 0
    endloop
  endfacet
  facet normal 0 0 -1
    outer loop
      vertex 0 0 0
      vertex 8.23223 13.6822 0
      vertex 10 12.95 0
    endloop
  endfacet
  facet normal 0 0 -1
    outer loop
      vertex 0 0 0
      vertex 10 12.95 0
      vertex 50 0 0
    endloop
  endfacet
  facet normal 0 0 -1
    outer loop
      vertex 12.5 15.45 0
      vertex 50 0 0
      vertex 11.7678 13.6822 0
    endloop
  endfacet
  facet normal 0 0 -1
    outer loop
      vertex 7.5 27.95 0
      vertex 0 109.2 0
      vertex 8.23223 29.7178 0
    endloop
  endfacet
  facet normal 0 0 -1
    outer loop
      vertex 8.23223 42.2178 0
      vertex 7.5 52.95 0
      vertex 8.23223 51.1822 0
    endloop
  endfacet
  facet normal 0 0 -1
    outer loop
      vertex 11.7678 38.6822 0
      vertex 11.7678 29.7178 0
      vertex 10 37.95 0
    endloop
  endfacet
  facet normal 0 0 -1
    outer loop
      vertex 7.5 15.45 0
      vertex 0 109.2 0
      vertex 8.23223 17.2178 0
    endloop
  endfacet
  facet normal 0 0 -1
    outer loop
      vertex 8.23223 17.2178 0
      vertex 0 109.2 0
      vertex 7.5 27.95 0
    endloop
  endfacet
  facet normal 0 0 -1
    outer loop
      vertex 8.23223 17.2178 0
      vertex 7.5 27.95 0
      vertex 10 17.95 0
    endloop
  endfacet
  facet normal 0 0 -1
    outer loop
      vertex 10 25.45 0
      vertex 10 17.95 0
      vertex 8.23223 26.1822 0
    endloop
  endfacet
  facet normal 0 0 -1
    outer loop
      vertex 7.5 27.95 0
      vertex 8.23223 26.1822 0
      vertex 10 17.95 0
    endloop
  endfacet
  facet normal 0 0 -1
    outer loop
      vertex 10 17.95 0
      vertex 10 25.45 0
      vertex 11.7678 17.2178 0
    endloop
  endfacet
  facet normal 0 0 -1
    outer loop
      vertex 12.5 15.45 0
      vertex 11.7678 26.1822 0
      vertex 50 0 0
    endloop
  endfacet
  facet normal 0 0 -1
    outer loop
      vertex 11.7678 51.1822 0
      vertex 12.5 40.45 0
      vertex 11.7678 42.2178 0
    endloop
  endfacet
  facet normal 0 0 -1
    outer loop
      vertex 11.7678 26.1822 0
      vertex 12.5 27.95 0
      vertex 50 0 0
    endloop
  endfacet
  facet normal 0 0 -1
    outer loop
      vertex 10 50.45 0
      vertex 10 42.95 0
      vertex 8.23223 51.1822 0
    endloop
  endfacet
  facet normal 0 0 -1
    outer loop
      vertex 10 37.95 0
      vertex 10 30.45 0
      vertex 8.23223 38.6822 0
    endloop
  endfacet
  facet normal 0 0 -1
    outer loop
      vertex 8.23223 42.2178 0
      vertex 0 109.2 0
      vertex 7.5 52.95 0
    endloop
  endfacet
  facet normal 0 0 -1
    outer loop
      vertex 8.23223 29.7178 0
      vertex 0 109.2 0
      vertex 7.5 40.45 0
    endloop
  endfacet
  facet normal 0 0 -1
    outer loop
      vertex 11.7678 38.6822 0
      vertex 12.5 27.95 0
      vertex 11.7678 29.7178 0
    endloop
  endfacet
  facet normal 0 0 -1
    outer loop
      vertex 11.7678 26.1822 0
      vertex 11.7678 17.2178 0
      vertex 10 25.45 0
    endloop
  endfacet
  facet normal 0 0 -1
    outer loop
      vertex 11.7678 26.1822 0
      vertex 12.5 15.45 0
      vertex 11.7678 17.2178 0
    endloop
  endfacet
  facet normal 0 0 -1
    outer loop
      vertex 11.7678 51.1822 0
      vertex 11.7678 42.2178 0
      vertex 10 50.45 0
    endloop
  endfacet
  facet normal 0 0 -1
    outer loop
      vertex 7.5 65.45 0
      vertex 0 109.2 0
      vertex 8.23223 67.2178 0
    endloop
  endfacet
  facet normal 0 0 -1
    outer loop
      vertex 12.5 27.95 0
      vertex 11.7678 38.6822 0
      vertex 50 0 0
    endloop
  endfacet
  facet normal 0 0 -1
    outer loop
      vertex 11.7678 38.6822 0
      vertex 12.5 40.45 0
      vertex 50 0 0
    endloop
  endfacet
  facet normal 0 0 -1
    outer loop
      vertex 10 62.95 0
      vertex 10 55.45 0
      vertex 8.23223 63.6822 0
    endloop
  endfacet
  facet normal 0 0 -1
    outer loop
      vertex 7.5 52.95 0
      vertex 0 109.2 0
      vertex 8.23223 54.7178 0
    endloop
  endfacet
  facet normal 0 0 -1
    outer loop
      vertex 10 30.45 0
      vertex 10 37.95 0
      vertex 11.7678 29.7178 0
    endloop
  endfacet
  facet normal 0 0 -1
    outer loop
      vertex 8.23223 29.7178 0
      vertex 8.23223 38.6822 0
      vertex 10 30.45 0
    endloop
  endfacet
  facet normal 0 0 -1
    outer loop
      vertex 8.23223 42.2178 0
      vertex 8.23223 51.1822 0
      vertex 10 42.95 0
    endloop
  endfacet
  facet normal 0 0 -1
    outer loop
      vertex 8.23223 54.7178 0
      vertex 7.5 65.45 0
      vertex 8.23223 63.6822 0
    endloop
  endfacet
  facet normal 0 0 -1
    outer loop
      vertex 12.5 40.45 0
      vertex 11.7678 51.1822 0
      vertex 50 0 0
    endloop
  endfacet
  facet normal 0 0 -1
    outer loop
      vertex 11.7678 51.1822 0
      vertex 12.5 52.95 0
      vertex 50 0 0
    endloop
  endfacet
  facet normal 0 0 -1
    outer loop
      vertex 8.23223 54.7178 0
      vertex 8.23223 63.6822 0
      vertex 10 55.45 0
    endloop
  endfacet
  facet normal 0 0 -1
    outer loop
      vertex 8.23223 76.1822 0
      vertex 10 67.95 0
      vertex 7.5 77.95 0
    endloop
  endfacet
  facet normal 0 0 -1
    outer loop
      vertex 10 62.95 0
      vertex 11.7678 54.7178 0
      vertex 10 55.45 0
    endloop
  endfacet
  facet normal 0 0 -1
    outer loop
      vertex 10 42.95 0
      vertex 10 50.45 0
      vertex 11.7678 42.2178 0
    endloop
  endfacet
  facet normal 0 0 -1
    outer loop
      vertex 11.7678 63.6822 0
      vertex 12.5 52.95 0
      vertex 10 62.95 0
    endloop
  endfacet
  facet normal 0 0 -1
    outer loop
      vertex 11.7678 54.7178 0
      vertex 10 62.95 0
      vertex 12.5 52.95 0
    endloop
  endfacet
  facet normal 0 0 -1
    outer loop
      vertex 8.23223 67.2178 0
      vertex 7.5 77.95 0
      vertex 10 67.95 0
    endloop
  endfacet
  facet normal 0 0 -1
    outer loop
      vertex 12.5 52.95 0
      vertex 11.7678 63.6822 0
      vertex 50 0 0
    endloop
  endfacet
  facet normal 0 0 -1
    outer loop
      vertex 11.7678 63.6822 0
      vertex 12.5 65.45 0
      vertex 50 0 0
    endloop
  endfacet
  facet normal 0 0 -1
    outer loop
      vertex 10 75.45 0
      vertex 12.5 65.45 0
      vertex 11.7678 67.2178 0
    endloop
  endfacet
  facet normal 0 0 -1
    outer loop
      vertex 10 75.45 0
      vertex 10 67.95 0
      vertex 8.23223 76.1822 0
    endloop
  endfacet
  facet normal 0 0 -1
    outer loop
      vertex 7.5 77.95 0
      vertex 0 109.2 0
      vertex 8.23223 79.7178 0
    endloop
  endfacet
  facet normal 0 0 -1
    outer loop
      vertex 8.23223 54.7178 0
      vertex 0 109.2 0
      vertex 7.5 65.45 0
    endloop
  endfacet
  facet normal 0 0 -1
    outer loop
      vertex 10 75.45 0
      vertex 11.7678 67.2178 0
      vertex 10 67.95 0
    endloop
  endfacet
  facet normal 0 0 -1
    outer loop
      vertex 8.23223 67.2178 0
      vertex 0 109.2 0
      vertex 7.5 77.95 0
    endloop
  endfacet
  facet normal 0 0 -1
    outer loop
      vertex 10 80.45 0
      vertex 0 109.2 0
      vertex 11.7678 79.7178 0
    endloop
  endfacet
  facet normal 0 0 -1
    outer loop
      vertex 12.5 65.45 0
      vertex 10 75.45 0
      vertex 50 0 0
    endloop
  endfacet
  facet normal 0 0 -1
    outer loop
      vertex 8.23223 79.7178 0
      vertex 0 109.2 0
      vertex 10 80.45 0
    endloop
  endfacet
  facet normal 0 0 -1
    outer loop
      vertex 10 75.45 0
      vertex 11.7678 76.1822 0
      vertex 50 0 0
    endloop
  endfacet
  facet normal 0 0 -1
    outer loop
      vertex 11.7678 79.7178 0
      vertex 0 109.2 0
      vertex 12.5 77.95 0
    endloop
  endfacet
  facet normal 0 0 -1
    outer loop
      vertex 11.7678 76.1822 0
      vertex 12.5 77.95 0
      vertex 50 0 0
    endloop
  endfacet
  facet normal 0 0 -1
    outer loop
      vertex 12.5 90.45 0
      vertex 50 109.2 0
      vertex 11.7678 88.6822 0
    endloop
  endfacet
  facet normal 0 0 -1
    outer loop
      vertex 7.5 90.45 0
      vertex 0 109.2 0
      vertex 8.23223 92.2178 0
    endloop
  endfacet
  facet normal 0 0 -1
    outer loop
      vertex 12.5 77.95 0
      vertex 0 109.2 0
      vertex 7.5 90.45 0
    endloop
  endfacet
  facet normal 0 0 -1
    outer loop
      vertex 12.5 77.95 0
      vertex 7.5 90.45 0
      vertex 8.23223 88.6822 0
    endloop
  endfacet
  facet normal 0 0 -1
    outer loop
      vertex 12.5 77.95 0
      vertex 8.23223 88.6822 0
      vertex 50 0 0
    endloop
  endfacet
  facet normal 0 0 -1
    outer loop
      vertex 50 0 0
      vertex 10 87.95 0
      vertex 11.7678 88.6822 0
    endloop
  endfacet
  facet normal 0 0 -1
    outer loop
      vertex 50 0 0
      vertex 11.7678 88.6822 0
      vertex 50 109.2 0
    endloop
  endfacet
  facet normal 0 0 -1
    outer loop
      vertex 12.5 102.95 0
      vertex 50 109.2 0
      vertex 11.7678 101.182 0
    endloop
  endfacet
  facet normal 0 0 -1
    outer loop
      vertex 10 92.95 0
      vertex 0 109.2 0
      vertex 11.7678 92.2178 0
    endloop
  endfacet
  facet normal 0 0 -1
    outer loop
      vertex 12.5 90.45 0
      vertex 11.7678 92.2178 0
      vertex 50 109.2 0
    endloop
  endfacet
  facet normal 0 0 -1
    outer loop
      vertex 8.23223 92.2178 0
      vertex 0 109.2 0
      vertex 10 92.95 0
    endloop
  endfacet
  facet normal 0 0 -1
    outer loop
      vertex 11.7678 92.2178 0
      vertex 0 109.2 0
      vertex 7.5 102.95 0
    endloop
  endfacet
  facet normal 0 0 -1
    outer loop
      vertex 11.7678 92.2178 0
      vertex 7.5 102.95 0
      vertex 8.23223 101.182 0
    endloop
  endfacet
  facet normal 0 0 -1
    outer loop
      vertex 11.7678 92.2178 0
      vertex 8.23223 101.182 0
      vertex 10 100.45 0
    endloop
  endfacet
  facet normal 0 0 -1
    outer loop
      vertex 11.7678 92.2178 0
      vertex 10 100.45 0
      vertex 50 109.2 0
    endloop
  endfacet
  facet normal 0 0 -1
    outer loop
      vertex 10 100.45 0
      vertex 11.7678 101.182 0
      vertex 50 109.2 0
    endloop
  endfacet
  facet normal 0 0 -1
    outer loop
      vertex 11.7678 104.718 0
      vertex 50 109.2 0
      vertex 12.5 102.95 0
    endloop
  endfacet
  facet normal 0 0 -1
    outer loop
      vertex 8.23223 104.718 0
      vertex 0 109.2 0
      vertex 10 105.45 0
    endloop
  endfacet
  facet normal 0 0 -1
    outer loop
      vertex 11.7678 104.718 0
      vertex 10 105.45 0
      vertex 50 109.2 0
    endloop
  endfacet
  facet normal 0 0 -1
    outer loop
      vertex 7.5 102.95 0
      vertex 0 109.2 0
      vertex 8.23223 104.718 0
    endloop
  endfacet
  facet normal 0 0 -1
    outer loop
      vertex 11.7678 13.6822 0
      vertex 50 0 0
      vertex 10 12.95 0
    endloop
  endfacet
  facet normal 0 0 -1
    outer loop
      vertex 8.23223 29.7178 0
      vertex 7.5 40.45 0
      vertex 8.23223 38.6822 0
    endloop
  endfacet
  facet normal 0 0 -1
    outer loop
      vertex 7.5 40.45 0
      vertex 0 109.2 0
      vertex 8.23223 42.2178 0
    endloop
  endfacet
  facet normal 0 1 0
    outer loop
      vertex 0 109.2 0
      vertex 0 109.2 7.5
      vertex 50 109.2 0
    endloop
  endfacet
  facet normal 0 1 0
    outer loop
      vertex 50 109.2 0
      vertex 0 109.2 7.5
      vertex 50 109.2 7.5
    endloop
  endfacet
  facet normal 0 0 1
    outer loop
      vertex 0.325 9.525 7.5
      vertex 0 9.2 7.5
      vertex 50 9.2 7.5
    endloop
  endfacet
  facet normal 0 0 1
    outer loop
      vertex 24.675 9.525 7.5
      vertex 0.325 9.525 7.5
      vertex 50 9.2 7.5
    endloop
  endfacet
  facet normal 0 0 1
    outer loop
      vertex 0 109.2 7.5
      vertex 0 9.2 7.5
      vertex 0.325 9.525 7.5
    endloop
  endfacet
  facet normal 0 0 1
    outer loop
      vertex 24.675 59.525 7.5
      vertex 0.325 59.525 7.5
      vertex 24.675 58.875 7.5
    endloop
  endfacet
  facet normal 0 0 1
    outer loop
      vertex 0 109.2 7.5
      vertex 0.325 9.525 7.5
      vertex 0.325 33.875 7.5
    endloop
  endfacet
  facet normal 0 0 1
    outer loop
      vertex 25.325 9.525 7.5
      vertex 25.325 33.875 7.5
      vertex 24.675 33.875 7.5
    endloop
  endfacet
  facet normal 0 0 1
    outer loop
      vertex 0.325 34.525 7.5
      vertex 0.325 33.875 7.5
      vertex 24.675 33.875 7.5
    endloop
  endfacet
  facet normal 0 0 1
    outer loop
      vertex 25.325 9.525 7.5
      vertex 24.675 9.525 7.5
      vertex 50 9.2 7.5
    endloop
  endfacet
  facet normal 0 0 1
    outer loop
      vertex 0 109.2 7.5
      vertex 0.325 33.875 7.5
      vertex 0.325 34.525 7.5
    endloop
  endfacet
  facet normal 0 0 1
    outer loop
      vertex 0 109.2 7.5
      vertex 0.325 34.525 7.5
      vertex 0.325 58.875 7.5
    endloop
  endfacet
  facet normal 0 0 1
    outer loop
      vertex 49.675 108.875 7.5
      vertex 49.675 84.525 7.5
      vertex 50 109.2 7.5
    endloop
  endfacet
  facet normal 0 0 1
    outer loop
      vertex 25.325 34.525 7.5
      vertex 25.325 58.875 7.5
      vertex 24.675 59.525 7.5
    endloop
  endfacet
  facet normal 0 0 1
    outer loop
      vertex 24.675 83.875 7.5
      vertex 24.675 59.525 7.5
      vertex 25.325 58.875 7.5
    endloop
  endfacet
  facet normal 0 0 1
    outer loop
      vertex 0 109.2 7.5
      vertex 0.325 58.875 7.5
      vertex 0.325 59.525 7.5
    endloop
  endfacet
  facet normal 0 0 1
    outer loop
      vertex 49.675 34.525 7.5
      vertex 25.325 34.525 7.5
      vertex 49.675 33.875 7.5
    endloop
  endfacet
  facet normal 0 0 1
    outer loop
      vertex 0 109.2 7.5
      vertex 0.325 59.525 7.5
      vertex 0.325 83.875 7.5
    endloop
  endfacet
  facet normal 0 0 1
    outer loop
      vertex 49.675 9.525 7.5
      vertex 25.325 9.525 7.5
      vertex 50 9.2 7.5
    endloop
  endfacet
  facet normal 0 0 1
    outer loop
      vertex 24.675 84.525 7.5
      vertex 0.325 84.525 7.5
      vertex 24.675 83.875 7.5
    endloop
  endfacet
  facet normal 0 0 1
    outer loop
      vertex 25.325 33.875 7.5
      vertex 25.325 34.525 7.5
      vertex 24.675 34.525 7.5
    endloop
  endfacet
  facet normal 0 0 1
    outer loop
      vertex 0.325 58.875 7.5
      vertex 24.675 58.875 7.5
      vertex 0.325 59.525 7.5
    endloop
  endfacet
  facet normal 0 0 1
    outer loop
      vertex 0 109.2 7.5
      vertex 0.325 83.875 7.5
      vertex 0.325 84.525 7.5
    endloop
  endfacet
  facet normal 0 0 1
    outer loop
      vertex 25.325 34.525 7.5
      vertex 24.675 59.525 7.5
      vertex 24.675 58.875 7.5
    endloop
  endfacet
  facet normal 0 0 1
    outer loop
      vertex 50 109.2 7.5
      vertex 0 109.2 7.5
      vertex 0.325 108.875 7.5
    endloop
  endfacet
  facet normal 0 0 1
    outer loop
      vertex 50 109.2 7.5
      vertex 0.325 108.875 7.5
      vertex 24.675 108.875 7.5
    endloop
  endfacet
  facet normal 0 0 1
    outer loop
      vertex 25.325 84.525 7.5
      vertex 24.675 84.525 7.5
      vertex 24.675 83.875 7.5
    endloop
  endfacet
  facet normal 0 0 1
    outer loop
      vertex 25.325 108.875 7.5
      vertex 24.675 108.875 7.5
      vertex 24.675 84.525 7.5
    endloop
  endfacet
  facet normal 0 0 1
    outer loop
      vertex 25.325 58.875 7.5
      vertex 49.675 58.875 7.5
      vertex 25.325 59.525 7.5
    endloop
  endfacet
  facet normal 0 0 1
    outer loop
      vertex 24.675 34.525 7.5
      vertex 24.675 33.875 7.5
      vertex 25.325 33.875 7.5
    endloop
  endfacet
  facet normal 0 0 1
    outer loop
      vertex 50 109.2 7.5
      vertex 49.675 33.875 7.5
      vertex 50 9.2 7.5
    endloop
  endfacet
  facet normal 0 0 1
    outer loop
      vertex 49.675 59.525 7.5
      vertex 25.325 59.525 7.5
      vertex 49.675 58.875 7.5
    endloop
  endfacet
  facet normal 0 0 1
    outer loop
      vertex 24.675 58.875 7.5
      vertex 24.675 34.525 7.5
      vertex 25.325 34.525 7.5
    endloop
  endfacet
  facet normal 0 0 1
    outer loop
      vertex 0.325 84.525 7.5
      vertex 0.325 108.875 7.5
      vertex 0 109.2 7.5
    endloop
  endfacet
  facet normal 0 0 1
    outer loop
      vertex 25.325 59.525 7.5
      vertex 25.325 83.875 7.5
      vertex 24.675 83.875 7.5
    endloop
  endfacet
  facet normal 0 0 1
    outer loop
      vertex 50 109.2 7.5
      vertex 49.675 34.525 7.5
      vertex 49.675 33.875 7.5
    endloop
  endfacet
  facet normal 0 0 1
    outer loop
      vertex 50 109.2 7.5
      vertex 49.675 58.875 7.5
      vertex 49.675 34.525 7.5
    endloop
  endfacet
  facet normal 0 0 1
    outer loop
      vertex 49.675 33.875 7.5
      vertex 49.675 9.525 7.5
      vertex 50 9.2 7.5
    endloop
  endfacet
  facet normal 0 0 1
    outer loop
      vertex 24.675 83.875 7.5
      vertex 25.325 58.875 7.5
      vertex 25.325 59.525 7.5
    endloop
  endfacet
  facet normal 0 0 1
    outer loop
      vertex 49.675 84.525 7.5
      vertex 25.325 84.525 7.5
      vertex 25.325 83.875 7.5
    endloop
  endfacet
  facet normal 0 0 1
    outer loop
      vertex 25.325 84.525 7.5
      vertex 24.675 83.875 7.5
      vertex 25.325 83.875 7.5
    endloop
  endfacet
  facet normal 0 0 1
    outer loop
      vertex 49.675 84.525 7.5
      vertex 25.325 83.875 7.5
      vertex 49.675 83.875 7.5
    endloop
  endfacet
  facet normal 0 0 1
    outer loop
      vertex 50 109.2 7.5
      vertex 49.675 59.525 7.5
      vertex 49.675 58.875 7.5
    endloop
  endfacet
  facet normal 0 0 1
    outer loop
      vertex 50 109.2 7.5
      vertex 49.675 83.875 7.5
      vertex 49.675 59.525 7.5
    endloop
  endfacet
  facet normal 0 0 1
    outer loop
      vertex 25.325 108.875 7.5
      vertex 49.675 108.875 7.5
      vertex 50 109.2 7.5
    endloop
  endfacet
  facet normal 0 0 1
    outer loop
      vertex 50 109.2 7.5
      vertex 24.675 108.875 7.5
      vertex 25.325 108.875 7.5
    endloop
  endfacet
  facet normal 0 0 1
    outer loop
      vertex 50 109.2 7.5
      vertex 49.675 84.525 7.5
      vertex 49.675 83.875 7.5
    endloop
  endfacet
  facet normal 0 0 1
    outer loop
      vertex 25.325 84.525 7.5
      vertex 25.325 108.875 7.5
      vertex 24.675 84.525 7.5
    endloop
  endfacet
  facet normal 0 0 1
    outer loop
      vertex 24.675 33.875 7.5
      vertex 24.675 9.525 7.5
      vertex 25.325 9.525 7.5
    endloop
  endfacet
  facet normal 0 0 1
    outer loop
      vertex 0.325 83.875 7.5
      vertex 24.675 83.875 7.5
      vertex 0.325 84.525 7.5
    endloop
  endfacet
  facet normal 0 0 1
    outer loop
      vertex 24.675 34.525 7.5
      vertex 0.325 34.525 7.5
      vertex 24.675 33.875 7.5
    endloop
  endfacet
  facet normal 0 0 1
    outer loop
      vertex 25.325 33.875 7.5
      vertex 49.675 33.875 7.5
      vertex 25.325 34.525 7.5
    endloop
  endfacet
  facet normal 0 1 0
    outer loop
      vertex 5 9.2 49
      vertex 5 9.2 44
      vertex 0 9.2 49
    endloop
  endfacet
  facet normal 0 1 0
    outer loop
      vertex 0 9.2 7.5
      vertex 5 9.2 44
      vertex 50 9.2 7.5
    endloop
  endfacet
  facet normal 0 1 0
    outer loop
      vertex 50 9.2 49
      vertex 15 9.2 44
      vertex 15 9.2 49
    endloop
  endfacet
  facet normal 0 1 0
    outer loop
      vertex 50 9.2 7.5
      vertex 15 9.2 44
      vertex 50 9.2 49
    endloop
  endfacet
  facet normal 0 1 0
    outer loop
      vertex 5 9.2 44
      vertex 15 9.2 44
      vertex 50 9.2 7.5
    endloop
  endfacet
  facet normal 0 1 0
    outer loop
      vertex 0 9.2 49
      vertex 5 9.2 44
      vertex 0 9.2 7.5
    endloop
  endfacet
  facet normal 0 0 1
    outer loop
      vertex 0 9.2 49
      vertex 0 0 49
      vertex 5 0 49
    endloop
  endfacet
  facet normal 0 0 1
    outer loop
      vertex 5 9.2 49
      vertex 0 9.2 49
      vertex 5 0 49
    endloop
  endfacet
  facet normal 1 0 0
    outer loop
      vertex 5 9.2 44
      vertex 5 9.2 49
      vertex 5 0 49
    endloop
  endfacet
  facet normal 1 0 0
    outer loop
      vertex 5 0 44
      vertex 5 9.2 44
      vertex 5 0 49
    endloop
  endfacet
  facet normal 0 0 1
    outer loop
      vertex 15 0 44
      vertex 15 9.2 44
      vertex 5 9.2 44
    endloop
  endfacet
  facet normal 0 0 1
    outer loop
      vertex 5 0 44
      vertex 15 0 44
      vertex 5 9.2 44
    endloop
  endfacet
  facet normal -1 0 0
    outer loop
      vertex 15 9.2 49
      vertex 15 9.2 44
      vertex 15 0 49
    endloop
  endfacet
  facet normal -1 0 0
    outer loop
      vertex 15 0 49
      vertex 15 9.2 44
      vertex 15 0 44
    endloop
  endfacet
  facet normal 0 0 1
    outer loop
      vertex 15 9.2 49
      vertex 15 0 49
      vertex 50 0 49
    endloop
  endfacet
  facet normal 0 0 1
    outer loop
      vertex 50 9.2 49
      vertex 15 9.2 49
      vertex 50 0 49
    endloop
  endfacet
  facet normal 1 0 0
    outer loop
      vertex 50 9.2 7.5
      vertex 50 0 0
      vertex 50 109.2 0
    endloop
  endfacet
  facet normal 1 0 0
    outer loop
      vertex 50 9.2 7.5
      vertex 50 9.2 49
      vertex 50 0 49
    endloop
  endfacet
  facet normal 1 0 0
    outer loop
      vertex 50 0 49
      vertex 50 0 0
      vertex 50 9.2 7.5
    endloop
  endfacet
  facet normal 1 0 0
    outer loop
      vertex 50 109.2 7.5
      vertex 50 9.2 7.5
      vertex 50 109.2 0
    endloop
  endfacet
  facet normal 0.92388 -0.382683 0
    outer loop
      vertex 8.23223 17.2178 0
      vertex 8.23223 17.2178 9.5
      vertex 7.5 15.45 9.5
    endloop
  endfacet
  facet normal 0.92388 -0.382683 0
    outer loop
      vertex 7.5 15.45 0
      vertex 8.23223 17.2178 0
      vertex 7.5 15.45 9.5
    endloop
  endfacet
  facet normal 0.92388 0.382683 0
    outer loop
      vertex 7.5 15.45 9.5
      vertex 8.23223 13.6822 9.5
      vertex 8.23223 13.6822 0
    endloop
  endfacet
  facet normal 0.92388 0.382683 0
    outer loop
      vertex 7.5 15.45 0
      vertex 7.5 15.45 9.5
      vertex 8.23223 13.6822 0
    endloop
  endfacet
  facet normal 0.382683 -0.92388 0
    outer loop
      vertex 10 17.95 0
      vertex 10 17.95 9.5
      vertex 8.23223 17.2178 9.5
    endloop
  endfacet
  facet normal 0.382683 -0.92388 0
    outer loop
      vertex 8.23223 17.2178 0
      vertex 10 17.95 0
      vertex 8.23223 17.2178 9.5
    endloop
  endfacet
  facet normal -0.382683 -0.92388 0
    outer loop
      vertex 11.7678 17.2178 0
      vertex 11.7678 17.2178 9.5
      vertex 10 17.95 9.5
    endloop
  endfacet
  facet normal -0.382683 -0.92388 0
    outer loop
      vertex 10 17.95 0
      vertex 11.7678 17.2178 0
      vertex 10 17.95 9.5
    endloop
  endfacet
  facet normal -0.92388 -0.382683 0
    outer loop
      vertex 12.5 15.45 9.5
      vertex 11.7678 17.2178 9.5
      vertex 12.5 15.45 0
    endloop
  endfacet
  facet normal -0.92388 -0.382683 0
    outer loop
      vertex 12.5 15.45 0
      vertex 11.7678 17.2178 9.5
      vertex 11.7678 17.2178 0
    endloop
  endfacet
  facet normal -0.92388 0.382683 0
    outer loop
      vertex 12.5 15.45 9.5
      vertex 12.5 15.45 0
      vertex 11.7678 13.6822 9.5
    endloop
  endfacet
  facet normal -0.92388 0.382683 0
    outer loop
      vertex 11.7678 13.6822 9.5
      vertex 12.5 15.45 0
      vertex 11.7678 13.6822 0
    endloop
  endfacet
  facet normal -0.382683 0.92388 0
    outer loop
      vertex 11.7678 13.6822 9.5
      vertex 11.7678 13.6822 0
      vertex 10 12.95 9.5
    endloop
  endfacet
  facet normal -0.382683 0.92388 0
    outer loop
      vertex 10 12.95 9.5
      vertex 11.7678 13.6822 0
      vertex 10 12.95 0
    endloop
  endfacet
  facet normal 0.382683 0.92388 0
    outer loop
      vertex 10 12.95 9.5
      vertex 10 12.95 0
      vertex 8.23223 13.6822 9.5
    endloop
  endfacet
  facet normal 0.382683 0.92388 0
    outer loop
      vertex 8.23223 13.6822 9.5
      vertex 10 12.95 0
      vertex 8.23223 13.6822 0
    endloop
  endfacet
  facet normal 0.92388 -0.382683 0
    outer loop
      vertex 8.23223 29.7178 0
      vertex 8.23223 29.7178 9.5
      vertex 7.5 27.95 9.5
    endloop
  endfacet
  facet normal 0.92388 -0.382683 0
    outer loop
      vertex 7.5 27.95 0
      vertex 8.23223 29.7178 0
      vertex 7.5 27.95 9.5
    endloop
  endfacet
  facet normal 0.92388 0.382683 0
    outer loop
      vertex 7.5 27.95 9.5
      vertex 8.23223 26.1822 9.5
      vertex 8.23223 26.1822 0
    endloop
  endfacet
  facet normal 0.92388 0.382683 0
    outer loop
      vertex 7.5 27.95 0
      vertex 7.5 27.95 9.5
      vertex 8.23223 26.1822 0
    endloop
  endfacet
  facet normal 0.382683 -0.92388 0
    outer loop
      vertex 10 30.45 0
      vertex 10 30.45 9.5
      vertex 8.23223 29.7178 9.5
    endloop
  endfacet
  facet normal 0.382683 -0.92388 0
    outer loop
      vertex 8.23223 29.7178 0
      vertex 10 30.45 0
      vertex 8.23223 29.7178 9.5
    endloop
  endfacet
  facet normal -0.382683 -0.92388 0
    outer loop
      vertex 11.7678 29.7178 0
      vertex 11.7678 29.7178 9.5
      vertex 10 30.45 9.5
    endloop
  endfacet
  facet normal -0.382683 -0.92388 0
    outer loop
      vertex 10 30.45 0
      vertex 11.7678 29.7178 0
      vertex 10 30.45 9.5
    endloop
  endfacet
  facet normal -0.92388 -0.382683 0
    outer loop
      vertex 12.5 27.95 9.5
      vertex 11.7678 29.7178 9.5
      vertex 12.5 27.95 0
    endloop
  endfacet
  facet normal -0.92388 -0.382683 0
    outer loop
      vertex 12.5 27.95 0
      vertex 11.7678 29.7178 9.5
      vertex 11.7678 29.7178 0
    endloop
  endfacet
  facet normal -0.92388 0.382683 0
    outer loop
      vertex 12.5 27.95 9.5
      vertex 12.5 27.95 0
      vertex 11.7678 26.1822 9.5
    endloop
  endfacet
  facet normal -0.92388 0.382683 0
    outer loop
      vertex 11.7678 26.1822 9.5
      vertex 12.5 27.95 0
      vertex 11.7678 26.1822 0
    endloop
  endfacet
  facet normal -0.382683 0.92388 0
    outer loop
      vertex 11.7678 26.1822 9.5
      vertex 11.7678 26.1822 0
      vertex 10 25.45 9.5
    endloop
  endfacet
  facet normal -0.382683 0.92388 0
    outer loop
      vertex 10 25.45 9.5
      vertex 11.7678 26.1822 0
      vertex 10 25.45 0
    endloop
  endfacet
  facet normal 0.382683 0.92388 0
    outer loop
      vertex 10 25.45 9.5
      vertex 10 25.45 0
      vertex 8.23223 26.1822 9.5
    endloop
  endfacet
  facet normal 0.382683 0.92388 0
    outer loop
      vertex 8.23223 26.1822 9.5
      vertex 10 25.45 0
      vertex 8.23223 26.1822 0
    endloop
  endfacet
  facet normal 0.92388 -0.382683 0
    outer loop
      vertex 8.23223 42.2178 0
      vertex 8.23223 42.2178 9.5
      vertex 7.5 40.45 9.5
    endloop
  endfacet
  facet normal 0.92388 -0.382683 0
    outer loop
      vertex 7.5 40.45 0
      vertex 8.23223 42.2178 0
      vertex 7.5 40.45 9.5
    endloop
  endfacet
  facet normal 0.92388 0.382683 0
    outer loop
      vertex 7.5 40.45 9.5
      vertex 8.23223 38.6822 9.5
      vertex 8.23223 38.6822 0
    endloop
  endfacet
  facet normal 0.92388 0.382683 0
    outer loop
      vertex 7.5 40.45 0
      vertex 7.5 40.45 9.5
      vertex 8.23223 38.6822 0
    endloop
  endfacet
  facet normal 0.382683 -0.92388 0
    outer loop
      vertex 10 42.95 0
      vertex 10 42.95 9.5
      vertex 8.23223 42.2178 9.5
    endloop
  endfacet
  facet normal 0.382683 -0.92388 0
    outer loop
      vertex 8.23223 42.2178 0
      vertex 10 42.95 0
      vertex 8.23223 42.2178 9.5
    endloop
  endfacet
  facet normal -0.382683 -0.92388 0
    outer loop
      vertex 11.7678 42.2178 0
      vertex 11.7678 42.2178 9.5
      vertex 10 42.95 9.5
    endloop
  endfacet
  facet normal -0.382683 -0.92388 0
    outer loop
      vertex 10 42.95 0
      vertex 11.7678 42.2178 0
      vertex 10 42.95 9.5
    endloop
  endfacet
  facet normal -0.92388 -0.382683 0
    outer loop
      vertex 12.5 40.45 9.5
      vertex 11.7678 42.2178 9.5
      vertex 12.5 40.45 0
    endloop
  endfacet
  facet normal -0.92388 -0.382683 0
    outer loop
      vertex 12.5 40.45 0
      vertex 11.7678 42.2178 9.5
      vertex 11.7678 42.2178 0
    endloop
  endfacet
  facet normal -0.92388 0.382683 0
    outer loop
      vertex 12.5 40.45 9.5
      vertex 12.5 40.45 0
      vertex 11.7678 38.6822 9.5
    endloop
  endfacet
  facet normal -0.92388 0.382683 0
    outer loop
      vertex 11.7678 38.6822 9.5
      vertex 12.5 40.45 0
      vertex 11.7678 38.6822 0
    endloop
  endfacet
  facet normal -0.382683 0.92388 0
    outer loop
      vertex 11.7678 38.6822 9.5
      vertex 11.7678 38.6822 0
      vertex 10 37.95 9.5
    endloop
  endfacet
  facet normal -0.382683 0.92388 0
    outer loop
      vertex 10 37.95 9.5
      vertex 11.7678 38.6822 0
      vertex 10 37.95 0
    endloop
  endfacet
  facet normal 0.382683 0.92388 0
    outer loop
      vertex 10 37.95 9.5
      vertex 10 37.95 0
      vertex 8.23223 38.6822 9.5
    endloop
  endfacet
  facet normal 0.382683 0.92388 0
    outer loop
      vertex 8.23223 38.6822 9.5
      vertex 10 37.95 0
      vertex 8.23223 38.6822 0
    endloop
  endfacet
  facet normal 0.92388 -0.382683 0
    outer loop
      vertex 8.23223 54.7178 0
      vertex 8.23223 54.7178 9.5
      vertex 7.5 52.95 9.5
    endloop
  endfacet
  facet normal 0.92388 -0.382683 0
    outer loop
      vertex 7.5 52.95 0
      vertex 8.23223 54.7178 0
      vertex 7.5 52.95 9.5
    endloop
  endfacet
  facet normal 0.92388 0.382683 0
    outer loop
      vertex 7.5 52.95 9.5
      vertex 8.23223 51.1822 9.5
      vertex 8.23223 51.1822 0
    endloop
  endfacet
  facet normal 0.92388 0.382683 0
    outer loop
      vertex 7.5 52.95 0
      vertex 7.5 52.95 9.5
      vertex 8.23223 51.1822 0
    endloop
  endfacet
  facet normal 0.382683 -0.92388 0
    outer loop
      vertex 10 55.45 0
      vertex 10 55.45 9.5
      vertex 8.23223 54.7178 9.5
    endloop
  endfacet
  facet normal 0.382683 -0.92388 0
    outer loop
      vertex 8.23223 54.7178 0
      vertex 10 55.45 0
      vertex 8.23223 54.7178 9.5
    endloop
  endfacet
  facet normal -0.382683 -0.92388 0
    outer loop
      vertex 11.7678 54.7178 0
      vertex 11.7678 54.7178 9.5
      vertex 10 55.45 9.5
    endloop
  endfacet
  facet normal -0.382683 -0.92388 0
    outer loop
      vertex 10 55.45 0
      vertex 11.7678 54.7178 0
      vertex 10 55.45 9.5
    endloop
  endfacet
  facet normal -0.92388 -0.382683 0
    outer loop
      vertex 12.5 52.95 9.5
      vertex 11.7678 54.7178 9.5
      vertex 12.5 52.95 0
    endloop
  endfacet
  facet normal -0.92388 -0.382683 0
    outer loop
      vertex 12.5 52.95 0
      vertex 11.7678 54.7178 9.5
      vertex 11.7678 54.7178 0
    endloop
  endfacet
  facet normal -0.92388 0.382683 0
    outer loop
      vertex 12.5 52.95 9.5
      vertex 12.5 52.95 0
      vertex 11.7678 51.1822 9.5
    endloop
  endfacet
  facet normal -0.92388 0.382683 0
    outer loop
      vertex 11.7678 51.1822 9.5
      vertex 12.5 52.95 0
      vertex 11.7678 51.1822 0
    endloop
  endfacet
  facet normal -0.382683 0.92388 0
    outer loop
      vertex 11.7678 51.1822 9.5
      vertex 11.7678 51.1822 0
      vertex 10 50.45 9.5
    endloop
  endfacet
  facet normal -0.382683 0.92388 0
    outer loop
      vertex 10 50.45 9.5
      vertex 11.7678 51.1822 0
      vertex 10 50.45 0
    endloop
  endfacet
  facet normal 0.382683 0.92388 0
    outer loop
      vertex 10 50.45 9.5
      vertex 10 50.45 0
      vertex 8.23223 51.1822 9.5
    endloop
  endfacet
  facet normal 0.382683 0.92388 0
    outer loop
      vertex 8.23223 51.1822 9.5
      vertex 10 50.45 0
      vertex 8.23223 51.1822 0
    endloop
  endfacet
  facet normal 0.92388 -0.382683 0
    outer loop
      vertex 8.23223 67.2178 0
      vertex 8.23223 67.2178 9.5
      vertex 7.5 65.45 9.5
    endloop
  endfacet
  facet normal 0.92388 -0.382683 0
    outer loop
      vertex 7.5 65.45 0
      vertex 8.23223 67.2178 0
      vertex 7.5 65.45 9.5
    endloop
  endfacet
  facet normal 0.92388 0.382683 0
    outer loop
      vertex 7.5 65.45 9.5
      vertex 8.23223 63.6822 9.5
      vertex 8.23223 63.6822 0
    endloop
  endfacet
  facet normal 0.92388 0.382683 0
    outer loop
      vertex 7.5 65.45 0
      vertex 7.5 65.45 9.5
      vertex 8.23223 63.6822 0
    endloop
  endfacet
  facet normal 0.382683 -0.92388 0
    outer loop
      vertex 10 67.95 0
      vertex 10 67.95 9.5
      vertex 8.23223 67.2178 9.5
    endloop
  endfacet
  facet normal 0.382683 -0.92388 0
    outer loop
      vertex 8.23223 67.2178 0
      vertex 10 67.95 0
      vertex 8.23223 67.2178 9.5
    endloop
  endfacet
  facet normal -0.382683 -0.92388 0
    outer loop
      vertex 11.7678 67.2178 0
      vertex 11.7678 67.2178 9.5
      vertex 10 67.95 9.5
    endloop
  endfacet
  facet normal -0.382683 -0.92388 0
    outer loop
      vertex 10 67.95 0
      vertex 11.7678 67.2178 0
      vertex 10 67.95 9.5
    endloop
  endfacet
  facet normal -0.92388 -0.382683 0
    outer loop
      vertex 12.5 65.45 9.5
      vertex 11.7678 67.2178 9.5
      vertex 12.5 65.45 0
    endloop
  endfacet
  facet normal -0.92388 -0.382683 0
    outer loop
      vertex 12.5 65.45 0
      vertex 11.7678 67.2178 9.5
      vertex 11.7678 67.2178 0
    endloop
  endfacet
  facet normal -0.92388 0.382683 0
    outer loop
      vertex 12.5 65.45 9.5
      vertex 12.5 65.45 0
      vertex 11.7678 63.6822 9.5
    endloop
  endfacet
  facet normal -0.92388 0.382683 0
    outer loop
      vertex 11.7678 63.6822 9.5
      vertex 12.5 65.45 0
      vertex 11.7678 63.6822 0
    endloop
  endfacet
  facet normal -0.382683 0.92388 0
    outer loop
      vertex 11.7678 63.6822 9.5
      vertex 11.7678 63.6822 0
      vertex 10 62.95 9.5
    endloop
  endfacet
  facet normal -0.382683 0.92388 0
    outer loop
      vertex 10 62.95 9.5
      vertex 11.7678 63.6822 0
      vertex 10 62.95 0
    endloop
  endfacet
  facet normal 0.382683 0.92388 0
    outer loop
      vertex 10 62.95 9.5
      vertex 10 62.95 0
      vertex 8.23223 63.6822 9.5
    endloop
  endfacet
  facet normal 0.382683 0.92388 0
    outer loop
      vertex 8.23223 63.6822 9.5
      vertex 10 62.95 0
      vertex 8.23223 63.6822 0
    endloop
  endfacet
  facet normal 0.92388 -0.382683 0
    outer loop
      vertex 8.23223 79.7178 0
      vertex 8.23223 79.7178 9.5
      vertex 7.5 77.95 9.5
    endloop
  endfacet
  facet normal 0.92388 -0.382683 0
    outer loop
      vertex 7.5 77.95 0
      vertex 8.23223 79.7178 0
      vertex 7.5 77.95 9.5
    endloop
  endfacet
  facet normal 0.92388 0.382683 0
    outer loop
      vertex 7.5 77.95 9.5
      vertex 8.23223 76.1822 9.5
      vertex 8.23223 76.1822 0
    endloop
  endfacet
  facet normal 0.92388 0.382683 0
    outer loop
      vertex 7.5 77.95 0
      vertex 7.5 77.95 9.5
      vertex 8.23223 76.1822 0
    endloop
  endfacet
  facet normal 0.382683 -0.92388 0
    outer loop
      vertex 10 80.45 0
      vertex 10 80.45 9.5
      vertex 8.23223 79.7178 9.5
    endloop
  endfacet
  facet normal 0.382683 -0.92388 0
    outer loop
      vertex 8.23223 79.7178 0
      vertex 10 80.45 0
      vertex 8.23223 79.7178 9.5
    endloop
  endfacet
  facet normal -0.382683 -0.92388 0
    outer loop
      vertex 11.7678 79.7178 0
      vertex 11.7678 79.7178 9.5
      vertex 10 80.45 9.5
    endloop
  endfacet
  facet normal -0.382683 -0.92388 0
    outer loop
      vertex 10 80.45 0
      vertex 11.7678 79.7178 0
      vertex 10 80.45 9.5
    endloop
  endfacet
  facet normal -0.92388 -0.382683 0
    outer loop
      vertex 12.5 77.95 9.5
      vertex 11.7678 79.7178 9.5
      vertex 12.5 77.95 0
    endloop
  endfacet
  facet normal -0.92388 -0.382683 0
    outer loop
      vertex 12.5 77.95 0
      vertex 11.7678 79.7178 9.5
      vertex 11.7678 79.7178 0
    endloop
  endfacet
  facet normal -0.92388 0.382683 0
    outer loop
      vertex 12.5 77.95 9.5
      vertex 12.5 77.95 0
      vertex 11.7678 76.1822 9.5
    endloop
  endfacet
  facet normal -0.92388 0.382683 0
    outer loop
      vertex 11.7678 76.1822 9.5
      vertex 12.5 77.95 0
      vertex 11.7678 76.1822 0
    endloop
  endfacet
  facet normal -0.382683 0.92388 0
    outer loop
      vertex 11.7678 76.1822 9.5
      vertex 11.7678 76.1822 0
      vertex 10 75.45 9.5
    endloop
  endfacet
  facet normal -0.382683 0.92388 0
    outer loop
      vertex 10 75.45 9.5
      vertex 11.7678 76.1822 0
      vertex 10 75.45 0
    endloop
  endfacet
  facet normal 0.382683 0.92388 0
    outer loop
      vertex 10 75.45 9.5
      vertex 10 75.45 0
      vertex 8.23223 76.1822 9.5
    endloop
  endfacet
  facet normal 0.382683 0.92388 0
    outer loop
      vertex 8.23223 76.1822 9.5
      vertex 10 75.45 0
      vertex 8.23223 76.1822 0
    endloop
  endfacet
  facet normal 0.92388 -0.382683 0
    outer loop
      vertex 8.23223 92.2178 0
      vertex 8.23223 92.2178 9.5
      vertex 7.5 90.45 9.5
    endloop
  endfacet
  facet normal 0.92388 -0.382683 0
    outer loop
      vertex 7.5 90.45 0
      vertex 8.23223 92.2178 0
      vertex 7.5 90.45 9.5
    endloop
  endfacet
  facet normal 0.92388 0.382683 0
    outer loop
      vertex 7.5 90.45 9.5
      vertex 8.23223 88.6822 9.5
      vertex 8.23223 88.6822 0
    endloop
  endfacet
  facet normal 0.92388 0.382683 0
    outer loop
      vertex 7.5 90.45 0
      vertex 7.5 90.45 9.5
      vertex 8.23223 88.6822 0
    endloop
  endfacet
  facet normal 0.382683 -0.92388 0
    outer loop
      vertex 10 92.95 0
      vertex 10 92.95 9.5
      vertex 8.23223 92.2178 9.5
    endloop
  endfacet
  facet normal 0.382683 -0.92388 0
    outer loop
      vertex 8.23223 92.2178 0
      vertex 10 92.95 0
      vertex 8.23223 92.2178 9.5
    endloop
  endfacet
  facet normal -0.382683 -0.92388 0
    outer loop
      vertex 11.7678 92.2178 0
      vertex 11.7678 92.2178 9.5
      vertex 10 92.95 9.5
    endloop
  endfacet
  facet normal -0.382683 -0.92388 0
    outer loop
      vertex 10 92.95 0
      vertex 11.7678 92.2178 0
      vertex 10 92.95 9.5
    endloop
  endfacet
  facet normal -0.92388 -0.382683 0
    outer loop
      vertex 12.5 90.45 9.5
      vertex 11.7678 92.2178 9.5
      vertex 12.5 90.45 0
    endloop
  endfacet
  facet normal -0.92388 -0.382683 0
    outer loop
      vertex 12.5 90.45 0
      vertex 11.7678 92.2178 9.5
      vertex 11.7678 92.2178 0
    endloop
  endfacet
  facet normal -0.92388 0.382683 0
    outer loop
      vertex 12.5 90.45 9.5
      vertex 12.5 90.45 0
      vertex 11.7678 88.6822 9.5
    endloop
  endfacet
  facet normal -0.92388 0.382683 0
    outer loop
      vertex 11.7678 88.6822 9.5
      vertex 12.5 90.45 0
      vertex 11.7678 88.6822 0
    endloop
  endfacet
  facet normal -0.382683 0.92388 0
    outer loop
      vertex 11.7678 88.6822 9.5
      vertex 11.7678 88.6822 0
      vertex 10 87.95 9.5
    endloop
  endfacet
  facet normal -0.382683 0.92388 0
    outer loop
      vertex 10 87.95 9.5
      vertex 11.7678 88.6822 0
      vertex 10 87.95 0
    endloop
  endfacet
  facet normal 0.382683 0.92388 0
    outer loop
      vertex 10 87.95 9.5
      vertex 10 87.95 0
      vertex 8.23223 88.6822 9.5
    endloop
  endfacet
  facet normal 0.382683 0.92388 0
    outer loop
      vertex 8.23223 88.6822 9.5
      vertex 10 87.95 0
      vertex 8.23223 88.6822 0
    endloop
  endfacet
  facet normal 0.92388 -0.382683 0
    outer loop
      vertex 8.23223 104.718 0
      vertex 8.23223 104.718 9.5
      vertex 7.5 102.95 9.5
    endloop
  endfacet
  facet normal 0.92388 -0.382683 0
    outer loop
      vertex 7.5 102.95 0
      vertex 8.23223 104.718 0
      vertex 7.5 102.95 9.5
    endloop
  endfacet
  facet normal 0.92388 0.382683 0
    outer loop
      vertex 7.5 102.95 9.5
      vertex 8.23223 101.182 9.5
      vertex 8.23223 101.182 0
    endloop
  endfacet
  facet normal 0.92388 0.382683 0
    outer loop
      vertex 7.5 102.95 0
      vertex 7.5 102.95 9.5
      vertex 8.23223 101.182 0
    endloop
  endfacet
  facet normal 0.382683 -0.92388 0
    outer loop
      vertex 10 105.45 0
      vertex 10 105.45 9.5
      vertex 8.23223 104.718 9.5
    endloop
  endfacet
  facet normal 0.382683 -0.92388 0
    outer loop
      vertex 8.23223 104.718 0
      vertex 10 105.45 0
      vertex 8.23223 104.718 9.5
    endloop
  endfacet
  facet normal -0.382683 -0.92388 0
    outer loop
      vertex 11.7678 104.718 0
      vertex 11.7678 104.718 9.5
      vertex 10 105.45 9.5
    endloop
  endfacet
  facet normal -0.382683 -0.92388 0
    outer loop
      vertex 10 105.45 0
      vertex 11.7678 104.718 0
      vertex 10 105.45 9.5
    endloop
  endfacet
  facet normal -0.92388 -0.382683 0
    outer loop
      vertex 12.5 102.95 9.5
      vertex 11.7678 104.718 9.5
      vertex 12.5 102.95 0
    endloop
  endfacet
  facet normal -0.92388 -0.382683 0
    outer loop
      vertex 12.5 102.95 0
      vertex 11.7678 104.718 9.5
      vertex 11.7678 104.718 0
    endloop
  endfacet
  facet normal -0.92388 0.382683 0
    outer loop
      vertex 12.5 102.95 9.5
      vertex 12.5 102.95 0
      vertex 11.7678 101.182 9.5
    endloop
  endfacet
  facet normal -0.92388 0.382683 0
    outer loop
      vertex 11.7678 101.182 9.5
      vertex 12.5 102.95 0
      vertex 11.7678 101.182 0
    endloop
  endfacet
  facet normal -0.382683 0.92388 0
    outer loop
      vertex 11.7678 101.182 9.5
      vertex 11.7678 101.182 0
      vertex 10 100.45 9.5
    endloop
  endfacet
  facet normal -0.382683 0.92388 0
    outer loop
      vertex 10 100.45 9.5
      vertex 11.7678 101.182 0
      vertex 10 100.45 0
    endloop
  endfacet
  facet normal 0.382683 0.92388 0
    outer loop
      vertex 10 100.45 9.5
      vertex 10 100.45 0
      vertex 8.23223 101.182 9.5
    endloop
  endfacet
  facet normal 0.382683 0.92388 0
    outer loop
      vertex 8.23223 101.182 9.5
      vertex 10 100.45 0
      vertex 8.23223 101.182 0
    endloop
  endfacet
  facet normal -1 0 0
    outer loop
      vertex 0.325 9.525 7.5
      vertex 0.325 9.525 9.5
      vertex 0.325 33.875 7.5
    endloop
  endfacet
  facet normal -1 0 0
    outer loop
      vertex 0.325 33.875 7.5
      vertex 0.325 9.525 9.5
      vertex 0.325 33.875 9.5
    endloop
  endfacet
  facet normal 0 -1 0
    outer loop
      vertex 0.325 9.525 9.5
      vertex 0.325 9.525 7.5
      vertex 24.675 9.525 7.5
    endloop
  endfacet
  facet normal 0 -1 0
    outer loop
      vertex 24.675 9.525 9.5
      vertex 0.325 9.525 9.5
      vertex 24.675 9.525 7.5
    endloop
  endfacet
  facet normal 1 0 0
    outer loop
      vertex 24.675 9.525 9.5
      vertex 24.675 9.525 7.5
      vertex 24.675 33.875 7.5
    endloop
  endfacet
  facet normal 1 0 0
    outer loop
      vertex 24.675 33.875 9.5
      vertex 24.675 9.525 9.5
      vertex 24.675 33.875 7.5
    endloop
  endfacet
  facet normal 0 1 0
    outer loop
      vertex 0.325 33.875 7.5
      vertex 0.325 33.875 9.5
      vertex 24.675 33.875 7.5
    endloop
  endfacet
  facet normal 0 1 0
    outer loop
      vertex 24.675 33.875 7.5
      vertex 0.325 33.875 9.5
      vertex 24.675 33.875 9.5
    endloop
  endfacet
  facet normal -1 0 0
    outer loop
      vertex 0.325 34.525 7.5
      vertex 0.325 34.525 9.5
      vertex 0.325 58.875 7.5
    endloop
  endfacet
  facet normal -1 0 0
    outer loop
      vertex 0.325 58.875 7.5
      vertex 0.325 34.525 9.5
      vertex 0.325 58.875 9.5
    endloop
  endfacet
  facet normal 0 -1 0
    outer loop
      vertex 0.325 34.525 9.5
      vertex 0.325 34.525 7.5
      vertex 24.675 34.525 7.5
    endloop
  endfacet
  facet normal 0 -1 0
    outer loop
      vertex 24.675 34.525 9.5
      vertex 0.325 34.525 9.5
      vertex 24.675 34.525 7.5
    endloop
  endfacet
  facet normal 1 0 0
    outer loop
      vertex 24.675 34.525 9.5
      vertex 24.675 34.525 7.5
      vertex 24.675 58.875 7.5
    endloop
  endfacet
  facet normal 1 0 0
    outer loop
      vertex 24.675 58.875 9.5
      vertex 24.675 34.525 9.5
      vertex 24.675 58.875 7.5
    endloop
  endfacet
  facet normal 0 1 0
    outer loop
      vertex 0.325 58.875 7.5
      vertex 0.325 58.875 9.5
      vertex 24.675 58.875 7.5
    endloop
  endfacet
  facet normal 0 1 0
    outer loop
      vertex 24.675 58.875 7.5
      vertex 0.325 58.875 9.5
      vertex 24.675 58.875 9.5
    endloop
  endfacet
  facet normal -1 0 0
    outer loop
      vertex 0.325 59.525 7.5
      vertex 0.325 59.525 9.5
      vertex 0.325 83.875 7.5
    endloop
  endfacet
  facet normal -1 0 0
    outer loop
      vertex 0.325 83.875 7.5
      vertex 0.325 59.525 9.5
      vertex 0.325 83.875 9.5
    endloop
  endfacet
  facet normal 0 -1 0
    outer loop
      vertex 0.325 59.525 9.5
      vertex 0.325 59.525 7.5
      vertex 24.675 59.525 7.5
    endloop
  endfacet
  facet normal 0 -1 0
    outer loop
      vertex 24.675 59.525 9.5
      vertex 0.325 59.525 9.5
      vertex 24.675 59.525 7.5
    endloop
  endfacet
  facet normal 1 0 0
    outer loop
      vertex 24.675 59.525 9.5
      vertex 24.675 59.525 7.5
      vertex 24.675 83.875 7.5
    endloop
  endfacet
  facet normal 1 0 0
    outer loop
      vertex 24.675 83.875 9.5
      vertex 24.675 59.525 9.5
      vertex 24.675 83.875 7.5
    endloop
  endfacet
  facet normal 0 1 0
    outer loop
      vertex 0.325 83.875 7.5
      vertex 0.325 83.875 9.5
      vertex 24.675 83.875 7.5
    endloop
  endfacet
  facet normal 0 1 0
    outer loop
      vertex 24.675 83.875 7.5
      vertex 0.325 83.875 9.5
      vertex 24.675 83.875 9.5
    endloop
  endfacet
  facet normal -1 0 0
    outer loop
      vertex 0.325 84.525 7.5
      vertex 0.325 84.525 9.5
      vertex 0.325 108.875 7.5
    endloop
  endfacet
  facet normal -1 0 0
    outer loop
      vertex 0.325 108.875 7.5
      vertex 0.325 84.525 9.5
      vertex 0.325 108.875 9.5
    endloop
  endfacet
  facet normal 0 -1 0
    outer loop
      vertex 0.325 84.525 9.5
      vertex 0.325 84.525 7.5
      vertex 24.675 84.525 7.5
    endloop
  endfacet
  facet normal 0 -1 0
    outer loop
      vertex 24.675 84.525 9.5
      vertex 0.325 84.525 9.5
      vertex 24.675 84.525 7.5
    endloop
  endfacet
  facet normal 1 0 0
    outer loop
      vertex 24.675 84.525 9.5
      vertex 24.675 84.525 7.5
      vertex 24.675 108.875 7.5
    endloop
  endfacet
  facet normal 1 0 0
    outer loop
      vertex 24.675 108.875 9.5
      vertex 24.675 84.525 9.5
      vertex 24.675 108.875 7.5
    endloop
  endfacet
  facet normal 0 1 0
    outer loop
      vertex 0.325 108.875 7.5
      vertex 0.325 108.875 9.5
      vertex 24.675 108.875 7.5
    endloop
  endfacet
  facet normal 0 1 0
    outer loop
      vertex 24.675 108.875 7.5
      vertex 0.325 108.875 9.5
      vertex 24.675 108.875 9.5
    endloop
  endfacet
  facet normal -1 0 0
    outer loop
      vertex 25.325 9.525 7.5
      vertex 25.325 9.525 9.5
      vertex 25.325 33.875 7.5
    endloop
  endfacet
  facet normal -1 0 0
    outer loop
      vertex 25.325 33.875 7.5
      vertex 25.325 9.525 9.5
      vertex 25.325 33.875 9.5
    endloop
  endfacet
  facet normal 0 -1 0
    outer loop
      vertex 25.325 9.525 9.5
      vertex 25.325 9.525 7.5
      vertex 49.675 9.525 7.5
    endloop
  endfacet
  facet normal 0 -1 0
    outer loop
      vertex 49.675 9.525 9.5
      vertex 25.325 9.525 9.5
      vertex 49.675 9.525 7.5
    endloop
  endfacet
  facet normal 1 0 0
    outer loop
      vertex 49.675 9.525 9.5
      vertex 49.675 9.525 7.5
      vertex 49.675 33.875 7.5
    endloop
  endfacet
  facet normal 1 0 0
    outer loop
      vertex 49.675 33.875 9.5
      vertex 49.675 9.525 9.5
      vertex 49.675 33.875 7.5
    endloop
  endfacet
  facet normal 0 1 0
    outer loop
      vertex 25.325 33.875 7.5
      vertex 25.325 33.875 9.5
      vertex 49.675 33.875 7.5
    endloop
  endfacet
  facet normal 0 1 0
    outer loop
      vertex 49.675 33.875 7.5
      vertex 25.325 33.875 9.5
      vertex 49.675 33.875 9.5
    endloop
  endfacet
  facet normal -1 0 0
    outer loop
      vertex 25.325 34.525 7.5
      vertex 25.325 34.525 9.5
      vertex 25.325 58.875 7.5
    endloop
  endfacet
  facet normal -1 0 0
    outer loop
      vertex 25.325 58.875 7.5
      vertex 25.325 34.525 9.5
      vertex 25.325 58.875 9.5
    endloop
  endfacet
  facet normal 0 -1 0
    outer loop
      vertex 25.325 34.525 9.5
      vertex 25.325 34.525 7.5
      vertex 49.675 34.525 7.5
    endloop
  endfacet
  facet normal 0 -1 0
    outer loop
      vertex 49.675 34.525 9.5
      vertex 25.325 34.525 9.5
      vertex 49.675 34.525 7.5
    endloop
  endfacet
  facet normal 1 0 0
    outer loop
      vertex 49.675 34.525 9.5
      vertex 49.675 34.525 7.5
      vertex 49.675 58.875 7.5
    endloop
  endfacet
  facet normal 1 0 0
    outer loop
      vertex 49.675 58.875 9.5
      vertex 49.675 34.525 9.5
      vertex 49.675 58.875 7.5
    endloop
  endfacet
  facet normal 0 1 0
    outer loop
      vertex 25.325 58.875 7.5
      vertex 25.325 58.875 9.5
      vertex 49.675 58.875 7.5
    endloop
  endfacet
  facet normal 0 1 0
    outer loop
      vertex 49.675 58.875 7.5
      vertex 25.325 58.875 9.5
      vertex 49.675 58.875 9.5
    endloop
  endfacet
  facet normal -1 0 0
    outer loop
      vertex 25.325 59.525 7.5
      vertex 25.325 59.525 9.5
      vertex 25.325 83.875 7.5
    endloop
  endfacet
  facet normal -1 0 0
    outer loop
      vertex 25.325 83.875 7.5
      vertex 25.325 59.525 9.5
      vertex 25.325 83.875 9.5
    endloop
  endfacet
  facet normal 0 -1 0
    outer loop
      vertex 25.325 59.525 9.5
      vertex 25.325 59.525 7.5
      vertex 49.675 59.525 7.5
    endloop
  endfacet
  facet normal 0 -1 0
    outer loop
      vertex 49.675 59.525 9.5
      vertex 25.325 59.525 9.5
      vertex 49.675 59.525 7.5
    endloop
  endfacet
  facet normal 1 0 0
    outer loop
      vertex 49.675 59.525 9.5
      vertex 49.675 59.525 7.5
      vertex 49.675 83.875 7.5
    endloop
  endfacet
  facet normal 1 0 0
    outer loop
      vertex 49.675 83.875 9.5
      vertex 49.675 59.525 9.5
      vertex 49.675 83.875 7.5
    endloop
  endfacet
  facet normal 0 1 0
    outer loop
      vertex 25.325 83.875 7.5
      vertex 25.325 83.875 9.5
      vertex 49.675 83.875 7.5
    endloop
  endfacet
  facet normal 0 1 0
    outer loop
      vertex 49.675 83.875 7.5
      vertex 25.325 83.875 9.5
      vertex 49.675 83.875 9.5
    endloop
  endfacet
  facet normal -1 0 0
    outer loop
      vertex 25.325 84.525 7.5
      vertex 25.325 84.525 9.5
      vertex 25.325 108.875 7.5
    endloop
  endfacet
  facet normal -1 0 0
    outer loop
      vertex 25.325 108.875 7.5
      vertex 25.325 84.525 9.5
      vertex 25.325 108.875 9.5
    endloop
  endfacet
  facet normal 0 -1 0
    outer loop
      vertex 25.325 84.525 9.5
      vertex 25.325 84.525 7.5
      vertex 49.675 84.525 7.5
    endloop
  endfacet
  facet normal 0 -1 0
    outer loop
      vertex 49.675 84.525 9.5
      vertex 25.325 84.525 9.5
      vertex 49.675 84.525 7.5
    endloop
  endfacet
  facet normal 1 0 0
    outer loop
      vertex 49.675 84.525 9.5
      vertex 49.675 84.525 7.5
      vertex 49.675 108.875 7.5
    endloop
  endfacet
  facet normal 1 0 0
    outer loop
      vertex 49.675 108.875 9.5
      vertex 49.675 84.525 9.5
      vertex 49.675 108.875 7.5
    endloop
  endfacet
  facet normal 0 1 0
    outer loop
      vertex 25.325 108.875 7.5
      vertex 25.325 108.875 9.5
      vertex 49.675 108.875 7.5
    endloop
  endfacet
  facet normal 0 1 0
    outer loop
      vertex 49.675 108.875 7.5
      vertex 25.325 108.875 9.5
      vertex 49.675 108.875 9.5
    endloop
  endfacet
  facet normal 0 0 1
    outer loop
      vertex 10 12.95 9.5
      vertex 0.325 9.525 9.5
      vertex 24.675 9.525 9.5
    endloop
  endfacet
  facet normal 0 0 1
    outer loop
      vertex 8.23223 26.1822 9.5
      vertex 0.325 33.875 9.5
      vertex 24.675 9.525 9.5
    endloop
  endfacet
  facet normal 0 0 1
    outer loop
      vertex 10 30.45 9.5
      vertex 11.7678 29.7178 9.5
      vertex 24.675 33.875 9.5
    endloop
  endfacet
  facet normal 0 0 1
    outer loop
      vertex 7.5 15.45 9.5
      vertex 0.325 9.525 9.5
      vertex 8.23223 13.6822 9.5
    endloop
  endfacet
  facet normal 0 0 1
    outer loop
      vertex 11.7678 17.2178 9.5
      vertex 12.5 15.45 9.5
      vertex 24.675 9.525 9.5
    endloop
  endfacet
  facet normal 0 0 1
    outer loop
      vertex 0.325 33.875 9.5
      vertex 0.325 9.525 9.5
      vertex 7.5 15.45 9.5
    endloop
  endfacet
  facet normal 0 0 1
    outer loop
      vertex 11.7678 13.6822 9.5
      vertex 10 12.95 9.5
      vertex 24.675 9.525 9.5
    endloop
  endfacet
  facet normal 0 0 1
    outer loop
      vertex 12.5 15.45 9.5
      vertex 11.7678 13.6822 9.5
      vertex 24.675 9.525 9.5
    endloop
  endfacet
  facet normal 0 0 1
    outer loop
      vertex 0.325 33.875 9.5
      vertex 8.23223 17.2178 9.5
      vertex 10 17.95 9.5
    endloop
  endfacet
  facet normal 0 0 1
    outer loop
      vertex 0.325 33.875 9.5
      vertex 11.7678 17.2178 9.5
      vertex 24.675 9.525 9.5
    endloop
  endfacet
  facet normal 0 0 1
    outer loop
      vertex 0.325 33.875 9.5
      vertex 10 17.95 9.5
      vertex 11.7678 17.2178 9.5
    endloop
  endfacet
  facet normal 0 0 1
    outer loop
      vertex 8.23223 13.6822 9.5
      vertex 0.325 9.525 9.5
      vertex 10 12.95 9.5
    endloop
  endfacet
  facet normal 0 0 1
    outer loop
      vertex 10 25.45 9.5
      vertex 8.23223 26.1822 9.5
      vertex 24.675 9.525 9.5
    endloop
  endfacet
  facet normal 0 0 1
    outer loop
      vertex 7.5 27.95 9.5
      vertex 0.325 33.875 9.5
      vertex 8.23223 26.1822 9.5
    endloop
  endfacet
  facet normal 0 0 1
    outer loop
      vertex 8.23223 29.7178 9.5
      vertex 0.325 33.875 9.5
      vertex 7.5 27.95 9.5
    endloop
  endfacet
  facet normal 0 0 1
    outer loop
      vertex 10 30.45 9.5
      vertex 0.325 33.875 9.5
      vertex 8.23223 29.7178 9.5
    endloop
  endfacet
  facet normal 0 0 1
    outer loop
      vertex 24.675 33.875 9.5
      vertex 0.325 33.875 9.5
      vertex 10 30.45 9.5
    endloop
  endfacet
  facet normal 0 0 1
    outer loop
      vertex 24.675 33.875 9.5
      vertex 12.5 27.95 9.5
      vertex 24.675 9.525 9.5
    endloop
  endfacet
  facet normal 0 0 1
    outer loop
      vertex 12.5 27.95 9.5
      vertex 11.7678 26.1822 9.5
      vertex 24.675 9.525 9.5
    endloop
  endfacet
  facet normal 0 0 1
    outer loop
      vertex 11.7678 26.1822 9.5
      vertex 10 25.45 9.5
      vertex 24.675 9.525 9.5
    endloop
  endfacet
  facet normal 0 0 1
    outer loop
      vertex 7.5 15.45 9.5
      vertex 8.23223 17.2178 9.5
      vertex 0.325 33.875 9.5
    endloop
  endfacet
  facet normal 0 0 1
    outer loop
      vertex 11.7678 29.7178 9.5
      vertex 12.5 27.95 9.5
      vertex 24.675 33.875 9.5
    endloop
  endfacet
  facet normal 0 0 1
    outer loop
      vertex 10 37.95 9.5
      vertex 0.325 34.525 9.5
      vertex 24.675 34.525 9.5
    endloop
  endfacet
  facet normal 0 0 1
    outer loop
      vertex 8.23223 51.1822 9.5
      vertex 0.325 58.875 9.5
      vertex 24.675 34.525 9.5
    endloop
  endfacet
  facet normal 0 0 1
    outer loop
      vertex 10 55.45 9.5
      vertex 11.7678 54.7178 9.5
      vertex 24.675 58.875 9.5
    endloop
  endfacet
  facet normal 0 0 1
    outer loop
      vertex 7.5 40.45 9.5
      vertex 0.325 34.525 9.5
      vertex 8.23223 38.6822 9.5
    endloop
  endfacet
  facet normal 0 0 1
    outer loop
      vertex 11.7678 42.2178 9.5
      vertex 12.5 40.45 9.5
      vertex 24.675 34.525 9.5
    endloop
  endfacet
  facet normal 0 0 1
    outer loop
      vertex 0.325 58.875 9.5
      vertex 0.325 34.525 9.5
      vertex 7.5 40.45 9.5
    endloop
  endfacet
  facet normal 0 0 1
    outer loop
      vertex 11.7678 38.6822 9.5
      vertex 10 37.95 9.5
      vertex 24.675 34.525 9.5
    endloop
  endfacet
  facet normal 0 0 1
    outer loop
      vertex 12.5 40.45 9.5
      vertex 11.7678 38.6822 9.5
      vertex 24.675 34.525 9.5
    endloop
  endfacet
  facet normal 0 0 1
    outer loop
      vertex 0.325 58.875 9.5
      vertex 8.23223 42.2178 9.5
      vertex 10 42.95 9.5
    endloop
  endfacet
  facet normal 0 0 1
    outer loop
      vertex 0.325 58.875 9.5
      vertex 11.7678 42.2178 9.5
      vertex 24.675 34.525 9.5
    endloop
  endfacet
  facet normal 0 0 1
    outer loop
      vertex 0.325 58.875 9.5
      vertex 10 42.95 9.5
      vertex 11.7678 42.2178 9.5
    endloop
  endfacet
  facet normal 0 0 1
    outer loop
      vertex 8.23223 38.6822 9.5
      vertex 0.325 34.525 9.5
      vertex 10 37.95 9.5
    endloop
  endfacet
  facet normal 0 0 1
    outer loop
      vertex 10 50.45 9.5
      vertex 8.23223 51.1822 9.5
      vertex 24.675 34.525 9.5
    endloop
  endfacet
  facet normal 0 0 1
    outer loop
      vertex 7.5 52.95 9.5
      vertex 0.325 58.875 9.5
      vertex 8.23223 51.1822 9.5
    endloop
  endfacet
  facet normal 0 0 1
    outer loop
      vertex 8.23223 54.7178 9.5
      vertex 0.325 58.875 9.5
      vertex 7.5 52.95 9.5
    endloop
  endfacet
  facet normal 0 0 1
    outer loop
      vertex 10 55.45 9.5
      vertex 0.325 58.875 9.5
      vertex 8.23223 54.7178 9.5
    endloop
  endfacet
  facet normal 0 0 1
    outer loop
      vertex 24.675 58.875 9.5
      vertex 0.325 58.875 9.5
      vertex 10 55.45 9.5
    endloop
  endfacet
  facet normal 0 0 1
    outer loop
      vertex 24.675 58.875 9.5
      vertex 12.5 52.95 9.5
      vertex 24.675 34.525 9.5
    endloop
  endfacet
  facet normal 0 0 1
    outer loop
      vertex 12.5 52.95 9.5
      vertex 11.7678 51.1822 9.5
      vertex 24.675 34.525 9.5
    endloop
  endfacet
  facet normal 0 0 1
    outer loop
      vertex 11.7678 51.1822 9.5
      vertex 10 50.45 9.5
      vertex 24.675 34.525 9.5
    endloop
  endfacet
  facet normal 0 0 1
    outer loop
      vertex 7.5 40.45 9.5
      vertex 8.23223 42.2178 9.5
      vertex 0.325 58.875 9.5
    endloop
  endfacet
  facet normal 0 0 1
    outer loop
      vertex 11.7678 54.7178 9.5
      vertex 12.5 52.95 9.5
      vertex 24.675 58.875 9.5
    endloop
  endfacet
  facet normal 0 0 1
    outer loop
      vertex 10 62.95 9.5
      vertex 0.325 59.525 9.5
      vertex 24.675 59.525 9.5
    endloop
  endfacet
  facet normal 0 0 1
    outer loop
      vertex 8.23223 76.1822 9.5
      vertex 0.325 83.875 9.5
      vertex 24.675 59.525 9.5
    endloop
  endfacet
  facet normal 0 0 1
    outer loop
      vertex 10 80.45 9.5
      vertex 11.7678 79.7178 9.5
      vertex 24.675 83.875 9.5
    endloop
  endfacet
  facet normal 0 0 1
    outer loop
      vertex 7.5 65.45 9.5
      vertex 0.325 59.525 9.5
      vertex 8.23223 63.6822 9.5
    endloop
  endfacet
  facet normal 0 0 1
    outer loop
      vertex 11.7678 67.2178 9.5
      vertex 12.5 65.45 9.5
      vertex 24.675 59.525 9.5
    endloop
  endfacet
  facet normal 0 0 1
    outer loop
      vertex 0.325 83.875 9.5
      vertex 0.325 59.525 9.5
      vertex 7.5 65.45 9.5
    endloop
  endfacet
  facet normal 0 0 1
    outer loop
      vertex 11.7678 63.6822 9.5
      vertex 10 62.95 9.5
      vertex 24.675 59.525 9.5
    endloop
  endfacet
  facet normal 0 0 1
    outer loop
      vertex 12.5 65.45 9.5
      vertex 11.7678 63.6822 9.5
      vertex 24.675 59.525 9.5
    endloop
  endfacet
  facet normal 0 0 1
    outer loop
      vertex 0.325 83.875 9.5
      vertex 8.23223 67.2178 9.5
      vertex 10 67.95 9.5
    endloop
  endfacet
  facet normal 0 0 1
    outer loop
      vertex 0.325 83.875 9.5
      vertex 11.7678 67.2178 9.5
      vertex 24.675 59.525 9.5
    endloop
  endfacet
  facet normal 0 0 1
    outer loop
      vertex 0.325 83.875 9.5
      vertex 10 67.95 9.5
      vertex 11.7678 67.2178 9.5
    endloop
  endfacet
  facet normal 0 0 1
    outer loop
      vertex 8.23223 63.6822 9.5
      vertex 0.325 59.525 9.5
      vertex 10 62.95 9.5
    endloop
  endfacet
  facet normal 0 0 1
    outer loop
      vertex 10 75.45 9.5
      vertex 8.23223 76.1822 9.5
      vertex 24.675 59.525 9.5
    endloop
  endfacet
  facet normal 0 0 1
    outer loop
      vertex 7.5 77.95 9.5
      vertex 0.325 83.875 9.5
      vertex 8.23223 76.1822 9.5
    endloop
  endfacet
  facet normal 0 0 1
    outer loop
      vertex 8.23223 79.7178 9.5
      vertex 0.325 83.875 9.5
      vertex 7.5 77.95 9.5
    endloop
  endfacet
  facet normal 0 0 1
    outer loop
      vertex 10 80.45 9.5
      vertex 0.325 83.875 9.5
      vertex 8.23223 79.7178 9.5
    endloop
  endfacet
  facet normal 0 0 1
    outer loop
      vertex 24.675 83.875 9.5
      vertex 0.325 83.875 9.5
      vertex 10 80.45 9.5
    endloop
  endfacet
  facet normal 0 0 1
    outer loop
      vertex 24.675 83.875 9.5
      vertex 12.5 77.95 9.5
      vertex 24.675 59.525 9.5
    endloop
  endfacet
  facet normal 0 0 1
    outer loop
      vertex 12.5 77.95 9.5
      vertex 11.7678 76.1822 9.5
      vertex 24.675 59.525 9.5
    endloop
  endfacet
  facet normal 0 0 1
    outer loop
      vertex 11.7678 76.1822 9.5
      vertex 10 75.45 9.5
      vertex 24.675 59.525 9.5
    endloop
  endfacet
  facet normal 0 0 1
    outer loop
      vertex 7.5 65.45 9.5
      vertex 8.23223 67.2178 9.5
      vertex 0.325 83.875 9.5
    endloop
  endfacet
  facet normal 0 0 1
    outer loop
      vertex 11.7678 79.7178 9.5
      vertex 12.5 77.95 9.5
      vertex 24.675 83.875 9.5
    endloop
  endfacet
  facet normal 0 0 1
    outer loop
      vertex 10 87.95 9.5
      vertex 0.325 84.525 9.5
      vertex 24.675 84.525 9.5
    endloop
  endfacet
  facet normal 0 0 1
    outer loop
      vertex 8.23223 101.182 9.5
      vertex 0.325 108.875 9.5
      vertex 24.675 84.525 9.5
    endloop
  endfacet
  facet normal 0 0 1
    outer loop
      vertex 10 105.45 9.5
      vertex 11.7678 104.718 9.5
      vertex 24.675 108.875 9.5
    endloop
  endfacet
  facet normal 0 0 1
    outer loop
      vertex 7.5 90.45 9.5
      vertex 0.325 84.525 9.5
      vertex 8.23223 88.6822 9.5
    endloop
  endfacet
  facet normal 0 0 1
    outer loop
      vertex 11.7678 92.2178 9.5
      vertex 12.5 90.45 9.5
      vertex 24.675 84.525 9.5
    endloop
  endfacet
  facet normal 0 0 1
    outer loop
      vertex 0.325 108.875 9.5
      vertex 0.325 84.525 9.5
      vertex 7.5 90.45 9.5
    endloop
  endfacet
  facet normal 0 0 1
    outer loop
      vertex 11.7678 88.6822 9.5
      vertex 10 87.95 9.5
      vertex 24.675 84.525 9.5
    endloop
  endfacet
  facet normal 0 0 1
    outer loop
      vertex 12.5 90.45 9.5
      vertex 11.7678 88.6822 9.5
      vertex 24.675 84.525 9.5
    endloop
  endfacet
  facet normal 0 0 1
    outer loop
      vertex 0.325 108.875 9.5
      vertex 8.23223 92.2178 9.5
      vertex 10 92.95 9.5
    endloop
  endfacet
  facet normal 0 0 1
    outer loop
      vertex 0.325 108.875 9.5
      vertex 11.7678 92.2178 9.5
      vertex 24.675 84.525 9.5
    endloop
  endfacet
  facet normal 0 0 1
    outer loop
      vertex 0.325 108.875 9.5
      vertex 10 92.95 9.5
      vertex 11.7678 92.2178 9.5
    endloop
  endfacet
  facet normal 0 0 1
    outer loop
      vertex 8.23223 88.6822 9.5
      vertex 0.325 84.525 9.5
      vertex 10 87.95 9.5
    endloop
  endfacet
  facet normal 0 0 1
    outer loop
      vertex 10 100.45 9.5
      vertex 8.23223 101.182 9.5
      vertex 24.675 84.525 9.5
    endloop
  endfacet
  facet normal 0 0 1
    outer loop
      vertex 7.5 102.95 9.5
      vertex 0.325 108.875 9.5
      vertex 8.23223 101.182 9.5
    endloop
  endfacet
  facet normal 0 0 1
    outer loop
      vertex 8.23223 104.718 9.5
      vertex 0.325 108.875 9.5
      vertex 7.5 102.95 9.5
    endloop
  endfacet
  facet normal 0 0 1
    outer loop
      vertex 10 105.45 9.5
      vertex 0.325 108.875 9.5
      vertex 8.23223 104.718 9.5
    endloop
  endfacet
  facet normal 0 0 1
    outer loop
      vertex 24.675 108.875 9.5
      vertex 0.325 108.875 9.5
      vertex 10 105.45 9.5
    endloop
  endfacet
  facet normal 0 0 1
    outer loop
      vertex 24.675 108.875 9.5
      vertex 12.5 102.95 9.5
      vertex 24.675 84.525 9.5
    endloop
  endfacet
  facet normal 0 0 1
    outer loop
      vertex 12.5 102.95 9.5
      vertex 11.7678 101.182 9.5
      vertex 24.675 84.525 9.5
    endloop
  endfacet
  facet normal 0 0 1
    outer loop
      vertex 11.7678 101.182 9.5
      vertex 10 100.45 9.5
      vertex 24.675 84.525 9.5
    endloop
  endfacet
  facet normal 0 0 1
    outer loop
      vertex 7.5 90.45 9.5
      vertex 8.23223 92.2178 9.5
      vertex 0.325 108.875 9.5
    endloop
  endfacet
  facet normal 0 0 1
    outer loop
      vertex 11.7678 104.718 9.5
      vertex 12.5 102.95 9.5
      vertex 24.675 108.875 9.5
    endloop
  endfacet
  facet normal 0 0 1
    outer loop
      vertex 25.325 33.875 9.5
      vertex 25.325 9.525 9.5
      vertex 49.675 9.525 9.5
    endloop
  endfacet
  facet normal 0 0 1
    outer loop
      vertex 49.675 33.875 9.5
      vertex 25.325 33.875 9.5
      vertex 49.675 9.525 9.5
    endloop
  endfacet
  facet normal 0 0 1
    outer loop
      vertex 25.325 58.875 9.5
      vertex 25.325 34.525 9.5
      vertex 49.675 34.525 9.5
    endloop
  endfacet
  facet normal 0 0 1
    outer loop
      vertex 49.675 58.875 9.5
      vertex 25.325 58.875 9.5
      vertex 49.675 34.525 9.5
    endloop
  endfacet
  facet normal 0 0 1
    outer loop
      vertex 25.325 83.875 9.5
      vertex 25.325 59.525 9.5
      vertex 49.675 59.525 9.5
    endloop
  endfacet
  facet normal 0 0 1
    outer loop
      vertex 49.675 83.875 9.5
      vertex 25.325 83.875 9.5
      vertex 49.675 59.525 9.5
    endloop
  endfacet
  facet normal 0 0 1
    outer loop
      vertex 25.325 108.875 9.5
      vertex 25.325 84.525 9.5
      vertex 49.675 84.525 9.5
    endloop
  endfacet
  facet normal 0 0 1
    outer loop
      vertex 49.675 108.875 9.5
      vertex 25.325 108.875 9.5
      vertex 49.675 84.525 9.5
    endloop
  endfacet
  facet normal -1 0 0
    outer loop
      vertex 0 109.2 0
      vertex 0 109.2 49
      vertex 0 118.4 0
    endloop
  endfacet
  facet normal -1 0 0
    outer loop
      vertex 0 118.4 0
      vertex 0 109.2 49
      vertex 0 118.4 49
    endloop
  endfacet
  facet normal 0 -1 0
    outer loop
      vertex 5 109.2 44
      vertex 0 109.2 0
      vertex 50 109.2 0
    endloop
  endfacet
  facet normal 0 -1 0
    outer loop
      vertex 5 109.2 44
      vertex 5 109.2 49
      vertex 0 109.2 49
    endloop
  endfacet
  facet normal 0 -1 0
    outer loop
      vertex 50 109.2 49
      vertex 15 109.2 49
      vertex 50 109.2 0
    endloop
  endfacet
  facet normal 0 -1 0
    outer loop
      vertex 15 109.2 49
      vertex 15 109.2 44
      vertex 50 109.2 0
    endloop
  endfacet
  facet normal 0 -1 0
    outer loop
      vertex 0 109.2 49
      vertex 0 109.2 0
      vertex 5 109.2 44
    endloop
  endfacet
  facet normal 0 -1 0
    outer loop
      vertex 15 109.2 44
      vertex 5 109.2 44
      vertex 50 109.2 0
    endloop
  endfacet
  facet normal 0 0 -1
    outer loop
      vertex 0 109.2 0
      vertex 0 118.4 0
      vertex 50 109.2 0
    endloop
  endfacet
  facet normal 0 0 -1
    outer loop
      vertex 50 109.2 0
      vertex 0 118.4 0
      vertex 50 118.4 0
    endloop
  endfacet
  facet normal 0 1 0
    outer loop
      vertex 15 118.4 44
      vertex 50 118.4 0
      vertex 5 118.4 44
    endloop
  endfacet
  facet normal 0 1 0
    outer loop
      vertex 0 118.4 0
      vertex 0 118.4 49
      vertex 5 118.4 44
    endloop
  endfacet
  facet normal 0 1 0
    outer loop
      vertex 0 118.4 0
      vertex 5 118.4 44
      vertex 50 118.4 0
    endloop
  endfacet
  facet normal 0 1 0
    outer loop
      vertex 50 118.4 0
      vertex 15 118.4 44
      vertex 15 118.4 49
    endloop
  endfacet
  facet normal 0 1 0
    outer loop
      vertex 50 118.4 0
      vertex 15 118.4 49
      vertex 50 118.4 49
    endloop
  endfacet
  facet normal 0 1 0
    outer loop
      vertex 5 118.4 44
      vertex 0 118.4 49
      vertex 5 118.4 49
    endloop
  endfacet
  facet normal 0 0 1
    outer loop
      vertex 0 118.4 49
      vertex 0 109.2 49
      vertex 5 109.2 49
    endloop
  endfacet
  facet normal 0 0 1
    outer loop
      vertex 5 118.4 49
      vertex 0 118.4 49
      vertex 5 109.2 49
    endloop
  endfacet
  facet normal 1 0 0
    outer loop
      vertex 5 118.4 44
      vertex 5 118.4 49
      vertex 5 109.2 49
    endloop
  endfacet
  facet normal 1 0 0
    outer loop
      vertex 5 109.2 44
      vertex 5 118.4 44
      vertex 5 109.2 49
    endloop
  endfacet
  facet normal 0 0 1
    outer loop
      vertex 15 109.2 44
      vertex 15 118.4 44
      vertex 5 118.4 44
    endloop
  endfacet
  facet normal 0 0 1
    outer loop
      vertex 5 109.2 44
      vertex 15 109.2 44
      vertex 5 118.4 44
    endloop
  endfacet
  facet normal -1 0 0
    outer loop
      vertex 15 118.4 49
      vertex 15 118.4 44
      vertex 15 109.2 49
    endloop
  endfacet
  facet normal -1 0 0
    outer loop
      vertex 15 109.2 49
      vertex 15 118.4 44
      vertex 15 109.2 44
    endloop
  endfacet
  facet normal 0 0 1
    outer loop
      vertex 15 118.4 49
      vertex 15 109.2 49
      vertex 50 109.2 49
    endloop
  endfacet
  facet normal 0 0 1
    outer loop
      vertex 50 118.4 49
      vertex 15 118.4 49
      vertex 50 109.2 49
    endloop
  endfacet
  facet normal 1 0 0
    outer loop
      vertex 50 109.2 49
      vertex 50 109.2 0
      vertex 50 118.4 0
    endloop
  endfacet
  facet normal 1 0 0
    outer loop
      vertex 50 118.4 49
      vertex 50 109.2 49
      vertex 50 118.4 0
    endloop
  endfacet
endsolid OpenSCAD_Model
