solid OpenSCAD_Model
  facet normal -1 0 0
    outer loop
      vertex 0 90.8 7.5
      vertex 0 100 0
      vertex 0 9.2 7.5
    endloop
  endfacet
  facet normal -1 0 0
    outer loop
      vertex 0 0 0
      vertex 0 0 49
      vertex 0 9.2 7.5
    endloop
  endfacet
  facet normal -1 0 0
    outer loop
      vertex 0 0 0
      vertex 0 9.2 7.5
      vertex 0 100 0
    endloop
  endfacet
  facet normal -1 0 0
    outer loop
      vertex 0 100 0
      vertex 0 90.8 7.5
      vertex 0 90.8 49
    endloop
  endfacet
  facet normal -1 0 0
    outer loop
      vertex 0 100 0
      vertex 0 90.8 49
      vertex 0 100 49
    endloop
  endfacet
  facet normal -1 0 0
    outer loop
      vertex 0 9.2 7.5
      vertex 0 0 49
      vertex 0 9.2 49
    endloop
  endfacet
  facet normal 0 -1 0
    outer loop
      vertex 0 0 49
      vertex 0 0 0
      vertex 25 0 0
    endloop
  endfacet
  facet normal 0 -1 0
    outer loop
      vertex 5 0 44
      vertex 0 0 49
      vertex 25 0 0
    endloop
  endfacet
  facet normal 0 -1 0
    outer loop
      vertex 25 0 49
      vertex 15 0 49
      vertex 25 0 0
    endloop
  endfacet
  facet normal 0 -1 0
    outer loop
      vertex 15 0 49
      vertex 15 0 44
      vertex 25 0 0
    endloop
  endfacet
  facet normal 0 -1 0
    outer loop
      vertex 15 0 44
      vertex 5 0 44
      vertex 25 0 0
    endloop
  endfacet
  facet normal 0 -1 0
    outer loop
      vertex 5 0 44
      vertex 5 0 49
      vertex 0 0 49
    endloop
  endfacet
  facet normal 0 0 -1
    outer loop
      vertex 8.23223 83.0178 0
      vertex 0 100 0
      vertex 25 100 0
    endloop
  endfacet
  facet normal 0 0 -1
    outer loop
      vertex 0 0 0
      vertex 0 100 0
      vertex 7.5 18.75 0
    endloop
  endfacet
  facet normal 0 0 -1
    outer loop
      vertex 0 0 0
      vertex 7.5 18.75 0
      vertex 8.23223 16.9822 0
    endloop
  endfacet
  facet normal 0 0 -1
    outer loop
      vertex 0 0 0
      vertex 8.23223 16.9822 0
      vertex 25 0 0
    endloop
  endfacet
  facet normal 0 0 -1
    outer loop
      vertex 7.5 43.75 0
      vertex 0 100 0
      vertex 8.23223 45.5178 0
    endloop
  endfacet
  facet normal 0 0 -1
    outer loop
      vertex 8.23223 33.0178 0
      vertex 0 100 0
      vertex 7.5 43.75 0
    endloop
  endfacet
  facet normal 0 0 -1
    outer loop
      vertex 10 16.25 0
      vertex 11.7678 16.9822 0
      vertex 25 0 0
    endloop
  endfacet
  facet normal 0 0 -1
    outer loop
      vertex 11.7678 41.9822 0
      vertex 12.5 31.25 0
      vertex 11.7678 33.0178 0
    endloop
  endfacet
  facet normal 0 0 -1
    outer loop
      vertex 11.7678 16.9822 0
      vertex 12.5 18.75 0
      vertex 25 0 0
    endloop
  endfacet
  facet normal 0 0 -1
    outer loop
      vertex 7.5 18.75 0
      vertex 0 100 0
      vertex 8.23223 20.5178 0
    endloop
  endfacet
  facet normal 0 0 -1
    outer loop
      vertex 8.23223 20.5178 0
      vertex 0 100 0
      vertex 7.5 31.25 0
    endloop
  endfacet
  facet normal 0 0 -1
    outer loop
      vertex 7.5 31.25 0
      vertex 0 100 0
      vertex 8.23223 33.0178 0
    endloop
  endfacet
  facet normal 0 0 -1
    outer loop
      vertex 10 28.75 0
      vertex 10 21.25 0
      vertex 8.23223 29.4822 0
    endloop
  endfacet
  facet normal 0 0 -1
    outer loop
      vertex 11.7678 41.9822 0
      vertex 11.7678 33.0178 0
      vertex 10 41.25 0
    endloop
  endfacet
  facet normal 0 0 -1
    outer loop
      vertex 8.23223 20.5178 0
      vertex 7.5 31.25 0
      vertex 8.23223 29.4822 0
    endloop
  endfacet
  facet normal 0 0 -1
    outer loop
      vertex 7.5 56.25 0
      vertex 0 100 0
      vertex 8.23223 58.0178 0
    endloop
  endfacet
  facet normal 0 0 -1
    outer loop
      vertex 12.5 18.75 0
      vertex 11.7678 29.4822 0
      vertex 25 0 0
    endloop
  endfacet
  facet normal 0 0 -1
    outer loop
      vertex 11.7678 29.4822 0
      vertex 12.5 31.25 0
      vertex 25 0 0
    endloop
  endfacet
  facet normal 0 0 -1
    outer loop
      vertex 8.23223 58.0178 0
      vertex 0 100 0
      vertex 7.5 68.75 0
    endloop
  endfacet
  facet normal 0 0 -1
    outer loop
      vertex 10 53.75 0
      vertex 10 46.25 0
      vertex 8.23223 54.4822 0
    endloop
  endfacet
  facet normal 0 0 -1
    outer loop
      vertex 8.23223 33.0178 0
      vertex 7.5 43.75 0
      vertex 8.23223 41.9822 0
    endloop
  endfacet
  facet normal 0 0 -1
    outer loop
      vertex 11.7678 29.4822 0
      vertex 11.7678 20.5178 0
      vertex 10 28.75 0
    endloop
  endfacet
  facet normal 0 0 -1
    outer loop
      vertex 11.7678 29.4822 0
      vertex 12.5 18.75 0
      vertex 11.7678 20.5178 0
    endloop
  endfacet
  facet normal 0 0 -1
    outer loop
      vertex 8.23223 20.5178 0
      vertex 8.23223 29.4822 0
      vertex 10 21.25 0
    endloop
  endfacet
  facet normal 0 0 -1
    outer loop
      vertex 8.23223 33.0178 0
      vertex 8.23223 41.9822 0
      vertex 10 33.75 0
    endloop
  endfacet
  facet normal 0 0 -1
    outer loop
      vertex 8.23223 45.5178 0
      vertex 7.5 56.25 0
      vertex 8.23223 54.4822 0
    endloop
  endfacet
  facet normal 0 0 -1
    outer loop
      vertex 12.5 31.25 0
      vertex 11.7678 41.9822 0
      vertex 25 0 0
    endloop
  endfacet
  facet normal 0 0 -1
    outer loop
      vertex 11.7678 41.9822 0
      vertex 12.5 43.75 0
      vertex 25 0 0
    endloop
  endfacet
  facet normal 0 0 -1
    outer loop
      vertex 8.23223 45.5178 0
      vertex 8.23223 54.4822 0
      vertex 10 46.25 0
    endloop
  endfacet
  facet normal 0 0 -1
    outer loop
      vertex 8.23223 66.9822 0
      vertex 10 58.75 0
      vertex 7.5 68.75 0
    endloop
  endfacet
  facet normal 0 0 -1
    outer loop
      vertex 11.7678 54.4822 0
      vertex 12.5 43.75 0
      vertex 10 53.75 0
    endloop
  endfacet
  facet normal 0 0 -1
    outer loop
      vertex 10 53.75 0
      vertex 11.7678 45.5178 0
      vertex 10 46.25 0
    endloop
  endfacet
  facet normal 0 0 -1
    outer loop
      vertex 10 33.75 0
      vertex 10 41.25 0
      vertex 11.7678 33.0178 0
    endloop
  endfacet
  facet normal 0 0 -1
    outer loop
      vertex 8.23223 58.0178 0
      vertex 7.5 68.75 0
      vertex 10 58.75 0
    endloop
  endfacet
  facet normal 0 0 -1
    outer loop
      vertex 11.7678 54.4822 0
      vertex 25 0 0
      vertex 12.5 43.75 0
    endloop
  endfacet
  facet normal 0 0 -1
    outer loop
      vertex 11.7678 45.5178 0
      vertex 10 53.75 0
      vertex 12.5 43.75 0
    endloop
  endfacet
  facet normal 0 0 -1
    outer loop
      vertex 11.7678 58.0178 0
      vertex 25 100 0
      vertex 12.5 56.25 0
    endloop
  endfacet
  facet normal 0 0 -1
    outer loop
      vertex 25 0 0
      vertex 11.7678 54.4822 0
      vertex 12.5 56.25 0
    endloop
  endfacet
  facet normal 0 0 -1
    outer loop
      vertex 25 0 0
      vertex 12.5 56.25 0
      vertex 25 100 0
    endloop
  endfacet
  facet normal 0 0 -1
    outer loop
      vertex 11.7678 83.0178 0
      vertex 25 100 0
      vertex 12.5 81.25 0
    endloop
  endfacet
  facet normal 0 0 -1
    outer loop
      vertex 10 66.25 0
      vertex 11.7678 58.0178 0
      vertex 10 58.75 0
    endloop
  endfacet
  facet normal 0 0 -1
    outer loop
      vertex 7.5 68.75 0
      vertex 0 100 0
      vertex 8.23223 70.5178 0
    endloop
  endfacet
  facet normal 0 0 -1
    outer loop
      vertex 8.23223 45.5178 0
      vertex 0 100 0
      vertex 7.5 56.25 0
    endloop
  endfacet
  facet normal 0 0 -1
    outer loop
      vertex 10 66.25 0
      vertex 10 58.75 0
      vertex 8.23223 66.9822 0
    endloop
  endfacet
  facet normal 0 0 -1
    outer loop
      vertex 11.7678 70.5178 0
      vertex 25 100 0
      vertex 12.5 68.75 0
    endloop
  endfacet
  facet normal 0 0 -1
    outer loop
      vertex 11.7678 58.0178 0
      vertex 10 66.25 0
      vertex 11.7678 66.9822 0
    endloop
  endfacet
  facet normal 0 0 -1
    outer loop
      vertex 11.7678 58.0178 0
      vertex 11.7678 66.9822 0
      vertex 12.5 68.75 0
    endloop
  endfacet
  facet normal 0 0 -1
    outer loop
      vertex 11.7678 58.0178 0
      vertex 12.5 68.75 0
      vertex 25 100 0
    endloop
  endfacet
  facet normal 0 0 -1
    outer loop
      vertex 10 71.25 0
      vertex 0 100 0
      vertex 11.7678 70.5178 0
    endloop
  endfacet
  facet normal 0 0 -1
    outer loop
      vertex 8.23223 70.5178 0
      vertex 0 100 0
      vertex 10 71.25 0
    endloop
  endfacet
  facet normal 0 0 -1
    outer loop
      vertex 11.7678 70.5178 0
      vertex 0 100 0
      vertex 7.5 81.25 0
    endloop
  endfacet
  facet normal 0 0 -1
    outer loop
      vertex 11.7678 70.5178 0
      vertex 7.5 81.25 0
      vertex 8.23223 79.4822 0
    endloop
  endfacet
  facet normal 0 0 -1
    outer loop
      vertex 11.7678 70.5178 0
      vertex 8.23223 79.4822 0
      vertex 10 78.75 0
    endloop
  endfacet
  facet normal 0 0 -1
    outer loop
      vertex 11.7678 70.5178 0
      vertex 10 78.75 0
      vertex 11.7678 79.4822 0
    endloop
  endfacet
  facet normal 0 0 -1
    outer loop
      vertex 11.7678 70.5178 0
      vertex 11.7678 79.4822 0
      vertex 25 100 0
    endloop
  endfacet
  facet normal 0 0 -1
    outer loop
      vertex 11.7678 79.4822 0
      vertex 12.5 81.25 0
      vertex 25 100 0
    endloop
  endfacet
  facet normal 0 0 -1
    outer loop
      vertex 10 83.75 0
      vertex 25 100 0
      vertex 11.7678 83.0178 0
    endloop
  endfacet
  facet normal 0 0 -1
    outer loop
      vertex 8.23223 83.0178 0
      vertex 25 100 0
      vertex 10 83.75 0
    endloop
  endfacet
  facet normal 0 0 -1
    outer loop
      vertex 7.5 81.25 0
      vertex 0 100 0
      vertex 8.23223 83.0178 0
    endloop
  endfacet
  facet normal 0 0 -1
    outer loop
      vertex 10 16.25 0
      vertex 25 0 0
      vertex 8.23223 16.9822 0
    endloop
  endfacet
  facet normal 0 0 -1
    outer loop
      vertex 10 21.25 0
      vertex 10 28.75 0
      vertex 11.7678 20.5178 0
    endloop
  endfacet
  facet normal 0 0 -1
    outer loop
      vertex 10 41.25 0
      vertex 10 33.75 0
      vertex 8.23223 41.9822 0
    endloop
  endfacet
  facet normal 0 1 0
    outer loop
      vertex 0 100 0
      vertex 0 100 49
      vertex 25 100 0
    endloop
  endfacet
  facet normal 0 1 0
    outer loop
      vertex 5 100 44
      vertex 0 100 49
      vertex 5 100 49
    endloop
  endfacet
  facet normal 0 1 0
    outer loop
      vertex 25 100 0
      vertex 0 100 49
      vertex 5 100 44
    endloop
  endfacet
  facet normal 0 1 0
    outer loop
      vertex 25 100 0
      vertex 15 100 44
      vertex 15 100 49
    endloop
  endfacet
  facet normal 0 1 0
    outer loop
      vertex 25 100 0
      vertex 15 100 49
      vertex 25 100 49
    endloop
  endfacet
  facet normal 0 1 0
    outer loop
      vertex 15 100 44
      vertex 25 100 0
      vertex 5 100 44
    endloop
  endfacet
  facet normal 0 0 1
    outer loop
      vertex 0 100 49
      vertex 0 90.8 49
      vertex 5 90.8 49
    endloop
  endfacet
  facet normal 0 0 1
    outer loop
      vertex 5 100 49
      vertex 0 100 49
      vertex 5 90.8 49
    endloop
  endfacet
  facet normal 0 -1 0
    outer loop
      vertex 0 90.8 49
      vertex 0 90.8 7.5
      vertex 0.325 90.8 7.5
    endloop
  endfacet
  facet normal 0 -1 0
    outer loop
      vertex 24.675 90.8 9.5
      vertex 0 90.8 49
      vertex 0.325 90.8 9.5
    endloop
  endfacet
  facet normal 0 -1 0
    outer loop
      vertex 0.325 90.8 9.5
      vertex 0 90.8 49
      vertex 0.325 90.8 7.5
    endloop
  endfacet
  facet normal 0 -1 0
    outer loop
      vertex 5 90.8 44
      vertex 0 90.8 49
      vertex 24.675 90.8 9.5
    endloop
  endfacet
  facet normal 0 -1 0
    outer loop
      vertex 25 90.8 7.5
      vertex 24.675 90.8 9.5
      vertex 24.675 90.8 7.5
    endloop
  endfacet
  facet normal 0 -1 0
    outer loop
      vertex 25 90.8 49
      vertex 24.675 90.8 9.5
      vertex 25 90.8 7.5
    endloop
  endfacet
  facet normal 0 -1 0
    outer loop
      vertex 25 90.8 49
      vertex 15 90.8 49
      vertex 24.675 90.8 9.5
    endloop
  endfacet
  facet normal 0 -1 0
    outer loop
      vertex 15 90.8 49
      vertex 15 90.8 44
      vertex 24.675 90.8 9.5
    endloop
  endfacet
  facet normal 0 -1 0
    outer loop
      vertex 15 90.8 44
      vertex 5 90.8 44
      vertex 24.675 90.8 9.5
    endloop
  endfacet
  facet normal 0 -1 0
    outer loop
      vertex 5 90.8 44
      vertex 5 90.8 49
      vertex 0 90.8 49
    endloop
  endfacet
  facet normal 0 0 1
    outer loop
      vertex 0 90.8 7.5
      vertex 0 9.2 7.5
      vertex 0.325 9.2 7.5
    endloop
  endfacet
  facet normal 0 0 1
    outer loop
      vertex 0.325 25.325 7.5
      vertex 0 90.8 7.5
      vertex 0.325 24.675 7.5
    endloop
  endfacet
  facet normal 0 0 1
    outer loop
      vertex 0.325 24.675 7.5
      vertex 0 90.8 7.5
      vertex 0.325 9.2 7.5
    endloop
  endfacet
  facet normal 0 0 1
    outer loop
      vertex 0.325 75.325 7.5
      vertex 0.325 90.8 7.5
      vertex 0 90.8 7.5
    endloop
  endfacet
  facet normal 0 0 1
    outer loop
      vertex 25 9.2 7.5
      vertex 24.675 24.675 7.5
      vertex 24.675 9.2 7.5
    endloop
  endfacet
  facet normal 0 0 1
    outer loop
      vertex 25 90.8 7.5
      vertex 24.675 24.675 7.5
      vertex 25 9.2 7.5
    endloop
  endfacet
  facet normal 0 0 1
    outer loop
      vertex 25 90.8 7.5
      vertex 24.675 90.8 7.5
      vertex 24.675 75.325 7.5
    endloop
  endfacet
  facet normal 0 0 1
    outer loop
      vertex 0.325 25.325 7.5
      vertex 0.325 49.675 7.5
      vertex 0 90.8 7.5
    endloop
  endfacet
  facet normal 0 0 1
    outer loop
      vertex 24.675 24.675 7.5
      vertex 0.325 25.325 7.5
      vertex 0.325 24.675 7.5
    endloop
  endfacet
  facet normal 0 0 1
    outer loop
      vertex 0.325 49.675 7.5
      vertex 0.325 50.325 7.5
      vertex 0 90.8 7.5
    endloop
  endfacet
  facet normal 0 0 1
    outer loop
      vertex 0.325 50.325 7.5
      vertex 0.325 74.675 7.5
      vertex 0 90.8 7.5
    endloop
  endfacet
  facet normal 0 0 1
    outer loop
      vertex 25 90.8 7.5
      vertex 24.675 25.325 7.5
      vertex 24.675 24.675 7.5
    endloop
  endfacet
  facet normal 0 0 1
    outer loop
      vertex 25 90.8 7.5
      vertex 24.675 49.675 7.5
      vertex 24.675 25.325 7.5
    endloop
  endfacet
  facet normal 0 0 1
    outer loop
      vertex 0.325 74.675 7.5
      vertex 24.675 74.675 7.5
      vertex 0.325 75.325 7.5
    endloop
  endfacet
  facet normal 0 0 1
    outer loop
      vertex 0.325 74.675 7.5
      vertex 0.325 75.325 7.5
      vertex 0 90.8 7.5
    endloop
  endfacet
  facet normal 0 0 1
    outer loop
      vertex 0.325 49.675 7.5
      vertex 24.675 49.675 7.5
      vertex 0.325 50.325 7.5
    endloop
  endfacet
  facet normal 0 0 1
    outer loop
      vertex 24.675 25.325 7.5
      vertex 0.325 25.325 7.5
      vertex 24.675 24.675 7.5
    endloop
  endfacet
  facet normal 0 0 1
    outer loop
      vertex 25 90.8 7.5
      vertex 24.675 75.325 7.5
      vertex 24.675 74.675 7.5
    endloop
  endfacet
  facet normal 0 0 1
    outer loop
      vertex 25 90.8 7.5
      vertex 24.675 50.325 7.5
      vertex 24.675 49.675 7.5
    endloop
  endfacet
  facet normal 0 0 1
    outer loop
      vertex 25 90.8 7.5
      vertex 24.675 74.675 7.5
      vertex 24.675 50.325 7.5
    endloop
  endfacet
  facet normal 0 0 1
    outer loop
      vertex 24.675 50.325 7.5
      vertex 0.325 50.325 7.5
      vertex 24.675 49.675 7.5
    endloop
  endfacet
  facet normal 0 0 1
    outer loop
      vertex 24.675 75.325 7.5
      vertex 0.325 75.325 7.5
      vertex 24.675 74.675 7.5
    endloop
  endfacet
  facet normal 0 1 0
    outer loop
      vertex 0 9.2 7.5
      vertex 0 9.2 49
      vertex 0.325 9.2 7.5
    endloop
  endfacet
  facet normal 0 1 0
    outer loop
      vertex 0.325 9.2 9.5
      vertex 0 9.2 49
      vertex 5 9.2 49
    endloop
  endfacet
  facet normal 0 1 0
    outer loop
      vertex 15 9.2 44
      vertex 15 9.2 49
      vertex 25 9.2 49
    endloop
  endfacet
  facet normal 0 1 0
    outer loop
      vertex 24.675 9.2 7.5
      vertex 25 9.2 49
      vertex 25 9.2 7.5
    endloop
  endfacet
  facet normal 0 1 0
    outer loop
      vertex 24.675 9.2 9.5
      vertex 25 9.2 49
      vertex 24.675 9.2 7.5
    endloop
  endfacet
  facet normal 0 1 0
    outer loop
      vertex 0.325 9.2 7.5
      vertex 0 9.2 49
      vertex 0.325 9.2 9.5
    endloop
  endfacet
  facet normal 0 1 0
    outer loop
      vertex 0.325 9.2 9.5
      vertex 5 9.2 49
      vertex 5 9.2 44
    endloop
  endfacet
  facet normal 0 1 0
    outer loop
      vertex 0.325 9.2 9.5
      vertex 5 9.2 44
      vertex 15 9.2 44
    endloop
  endfacet
  facet normal 0 1 0
    outer loop
      vertex 0.325 9.2 9.5
      vertex 15 9.2 44
      vertex 25 9.2 49
    endloop
  endfacet
  facet normal 0 1 0
    outer loop
      vertex 0.325 9.2 9.5
      vertex 25 9.2 49
      vertex 24.675 9.2 9.5
    endloop
  endfacet
  facet normal 0 0 1
    outer loop
      vertex 0 9.2 49
      vertex 0 0 49
      vertex 5 0 49
    endloop
  endfacet
  facet normal 0 0 1
    outer loop
      vertex 5 9.2 49
      vertex 0 9.2 49
      vertex 5 0 49
    endloop
  endfacet
  facet normal 1 0 0
    outer loop
      vertex 5 9.2 44
      vertex 5 9.2 49
      vertex 5 0 49
    endloop
  endfacet
  facet normal 1 0 0
    outer loop
      vertex 5 0 44
      vertex 5 9.2 44
      vertex 5 0 49
    endloop
  endfacet
  facet normal 0 0 1
    outer loop
      vertex 15 0 44
      vertex 15 9.2 44
      vertex 5 9.2 44
    endloop
  endfacet
  facet normal 0 0 1
    outer loop
      vertex 5 0 44
      vertex 15 0 44
      vertex 5 9.2 44
    endloop
  endfacet
  facet normal -1 0 0
    outer loop
      vertex 15 9.2 49
      vertex 15 9.2 44
      vertex 15 0 49
    endloop
  endfacet
  facet normal -1 0 0
    outer loop
      vertex 15 0 49
      vertex 15 9.2 44
      vertex 15 0 44
    endloop
  endfacet
  facet normal 0 0 1
    outer loop
      vertex 15 9.2 49
      vertex 15 0 49
      vertex 25 0 49
    endloop
  endfacet
  facet normal 0 0 1
    outer loop
      vertex 25 9.2 49
      vertex 15 9.2 49
      vertex 25 0 49
    endloop
  endfacet
  facet normal 1 0 0
    outer loop
      vertex 25 9.2 7.5
      vertex 25 0 0
      vertex 25 100 0
    endloop
  endfacet
  facet normal 1 0 0
    outer loop
      vertex 25 9.2 7.5
      vertex 25 9.2 49
      vertex 25 0 49
    endloop
  endfacet
  facet normal 1 0 0
    outer loop
      vertex 25 100 49
      vertex 25 90.8 49
      vertex 25 100 0
    endloop
  endfacet
  facet normal 1 0 0
    outer loop
      vertex 25 90.8 49
      vertex 25 90.8 7.5
      vertex 25 100 0
    endloop
  endfacet
  facet normal 1 0 0
    outer loop
      vertex 25 0 49
      vertex 25 0 0
      vertex 25 9.2 7.5
    endloop
  endfacet
  facet normal 1 0 0
    outer loop
      vertex 25 90.8 7.5
      vertex 25 9.2 7.5
      vertex 25 100 0
    endloop
  endfacet
  facet normal 0.92388 -0.382683 0
    outer loop
      vertex 8.23223 20.5178 0
      vertex 8.23223 20.5178 9.5
      vertex 7.5 18.75 9.5
    endloop
  endfacet
  facet normal 0.92388 -0.382683 0
    outer loop
      vertex 7.5 18.75 0
      vertex 8.23223 20.5178 0
      vertex 7.5 18.75 9.5
    endloop
  endfacet
  facet normal 0.92388 0.382683 0
    outer loop
      vertex 7.5 18.75 9.5
      vertex 8.23223 16.9822 9.5
      vertex 8.23223 16.9822 0
    endloop
  endfacet
  facet normal 0.92388 0.382683 0
    outer loop
      vertex 7.5 18.75 0
      vertex 7.5 18.75 9.5
      vertex 8.23223 16.9822 0
    endloop
  endfacet
  facet normal 0.382683 -0.92388 0
    outer loop
      vertex 10 21.25 0
      vertex 10 21.25 9.5
      vertex 8.23223 20.5178 9.5
    endloop
  endfacet
  facet normal 0.382683 -0.92388 0
    outer loop
      vertex 8.23223 20.5178 0
      vertex 10 21.25 0
      vertex 8.23223 20.5178 9.5
    endloop
  endfacet
  facet normal -0.382683 -0.92388 0
    outer loop
      vertex 11.7678 20.5178 0
      vertex 11.7678 20.5178 9.5
      vertex 10 21.25 9.5
    endloop
  endfacet
  facet normal -0.382683 -0.92388 0
    outer loop
      vertex 10 21.25 0
      vertex 11.7678 20.5178 0
      vertex 10 21.25 9.5
    endloop
  endfacet
  facet normal -0.92388 -0.382683 0
    outer loop
      vertex 12.5 18.75 9.5
      vertex 11.7678 20.5178 9.5
      vertex 12.5 18.75 0
    endloop
  endfacet
  facet normal -0.92388 -0.382683 0
    outer loop
      vertex 12.5 18.75 0
      vertex 11.7678 20.5178 9.5
      vertex 11.7678 20.5178 0
    endloop
  endfacet
  facet normal -0.92388 0.382683 0
    outer loop
      vertex 12.5 18.75 9.5
      vertex 12.5 18.75 0
      vertex 11.7678 16.9822 9.5
    endloop
  endfacet
  facet normal -0.92388 0.382683 0
    outer loop
      vertex 11.7678 16.9822 9.5
      vertex 12.5 18.75 0
      vertex 11.7678 16.9822 0
    endloop
  endfacet
  facet normal -0.382683 0.92388 0
    outer loop
      vertex 11.7678 16.9822 9.5
      vertex 11.7678 16.9822 0
      vertex 10 16.25 9.5
    endloop
  endfacet
  facet normal -0.382683 0.92388 0
    outer loop
      vertex 10 16.25 9.5
      vertex 11.7678 16.9822 0
      vertex 10 16.25 0
    endloop
  endfacet
  facet normal 0.382683 0.92388 0
    outer loop
      vertex 10 16.25 9.5
      vertex 10 16.25 0
      vertex 8.23223 16.9822 9.5
    endloop
  endfacet
  facet normal 0.382683 0.92388 0
    outer loop
      vertex 8.23223 16.9822 9.5
      vertex 10 16.25 0
      vertex 8.23223 16.9822 0
    endloop
  endfacet
  facet normal 0.92388 -0.382683 0
    outer loop
      vertex 8.23223 33.0178 0
      vertex 8.23223 33.0178 9.5
      vertex 7.5 31.25 9.5
    endloop
  endfacet
  facet normal 0.92388 -0.382683 0
    outer loop
      vertex 7.5 31.25 0
      vertex 8.23223 33.0178 0
      vertex 7.5 31.25 9.5
    endloop
  endfacet
  facet normal 0.92388 0.382683 0
    outer loop
      vertex 7.5 31.25 9.5
      vertex 8.23223 29.4822 9.5
      vertex 8.23223 29.4822 0
    endloop
  endfacet
  facet normal 0.92388 0.382683 0
    outer loop
      vertex 7.5 31.25 0
      vertex 7.5 31.25 9.5
      vertex 8.23223 29.4822 0
    endloop
  endfacet
  facet normal 0.382683 -0.92388 0
    outer loop
      vertex 10 33.75 0
      vertex 10 33.75 9.5
      vertex 8.23223 33.0178 9.5
    endloop
  endfacet
  facet normal 0.382683 -0.92388 0
    outer loop
      vertex 8.23223 33.0178 0
      vertex 10 33.75 0
      vertex 8.23223 33.0178 9.5
    endloop
  endfacet
  facet normal -0.382683 -0.92388 0
    outer loop
      vertex 11.7678 33.0178 0
      vertex 11.7678 33.0178 9.5
      vertex 10 33.75 9.5
    endloop
  endfacet
  facet normal -0.382683 -0.92388 0
    outer loop
      vertex 10 33.75 0
      vertex 11.7678 33.0178 0
      vertex 10 33.75 9.5
    endloop
  endfacet
  facet normal -0.92388 -0.382683 0
    outer loop
      vertex 12.5 31.25 9.5
      vertex 11.7678 33.0178 9.5
      vertex 12.5 31.25 0
    endloop
  endfacet
  facet normal -0.92388 -0.382683 0
    outer loop
      vertex 12.5 31.25 0
      vertex 11.7678 33.0178 9.5
      vertex 11.7678 33.0178 0
    endloop
  endfacet
  facet normal -0.92388 0.382683 0
    outer loop
      vertex 12.5 31.25 9.5
      vertex 12.5 31.25 0
      vertex 11.7678 29.4822 9.5
    endloop
  endfacet
  facet normal -0.92388 0.382683 0
    outer loop
      vertex 11.7678 29.4822 9.5
      vertex 12.5 31.25 0
      vertex 11.7678 29.4822 0
    endloop
  endfacet
  facet normal -0.382683 0.92388 0
    outer loop
      vertex 11.7678 29.4822 9.5
      vertex 11.7678 29.4822 0
      vertex 10 28.75 9.5
    endloop
  endfacet
  facet normal -0.382683 0.92388 0
    outer loop
      vertex 10 28.75 9.5
      vertex 11.7678 29.4822 0
      vertex 10 28.75 0
    endloop
  endfacet
  facet normal 0.382683 0.92388 0
    outer loop
      vertex 10 28.75 9.5
      vertex 10 28.75 0
      vertex 8.23223 29.4822 9.5
    endloop
  endfacet
  facet normal 0.382683 0.92388 0
    outer loop
      vertex 8.23223 29.4822 9.5
      vertex 10 28.75 0
      vertex 8.23223 29.4822 0
    endloop
  endfacet
  facet normal 0.92388 -0.382683 0
    outer loop
      vertex 8.23223 45.5178 0
      vertex 8.23223 45.5178 9.5
      vertex 7.5 43.75 9.5
    endloop
  endfacet
  facet normal 0.92388 -0.382683 0
    outer loop
      vertex 7.5 43.75 0
      vertex 8.23223 45.5178 0
      vertex 7.5 43.75 9.5
    endloop
  endfacet
  facet normal 0.92388 0.382683 0
    outer loop
      vertex 7.5 43.75 9.5
      vertex 8.23223 41.9822 9.5
      vertex 8.23223 41.9822 0
    endloop
  endfacet
  facet normal 0.92388 0.382683 0
    outer loop
      vertex 7.5 43.75 0
      vertex 7.5 43.75 9.5
      vertex 8.23223 41.9822 0
    endloop
  endfacet
  facet normal 0.382683 -0.92388 0
    outer loop
      vertex 10 46.25 0
      vertex 10 46.25 9.5
      vertex 8.23223 45.5178 9.5
    endloop
  endfacet
  facet normal 0.382683 -0.92388 0
    outer loop
      vertex 8.23223 45.5178 0
      vertex 10 46.25 0
      vertex 8.23223 45.5178 9.5
    endloop
  endfacet
  facet normal -0.382683 -0.92388 0
    outer loop
      vertex 11.7678 45.5178 0
      vertex 11.7678 45.5178 9.5
      vertex 10 46.25 9.5
    endloop
  endfacet
  facet normal -0.382683 -0.92388 0
    outer loop
      vertex 10 46.25 0
      vertex 11.7678 45.5178 0
      vertex 10 46.25 9.5
    endloop
  endfacet
  facet normal -0.92388 -0.382683 0
    outer loop
      vertex 12.5 43.75 9.5
      vertex 11.7678 45.5178 9.5
      vertex 12.5 43.75 0
    endloop
  endfacet
  facet normal -0.92388 -0.382683 0
    outer loop
      vertex 12.5 43.75 0
      vertex 11.7678 45.5178 9.5
      vertex 11.7678 45.5178 0
    endloop
  endfacet
  facet normal -0.92388 0.382683 0
    outer loop
      vertex 12.5 43.75 9.5
      vertex 12.5 43.75 0
      vertex 11.7678 41.9822 9.5
    endloop
  endfacet
  facet normal -0.92388 0.382683 0
    outer loop
      vertex 11.7678 41.9822 9.5
      vertex 12.5 43.75 0
      vertex 11.7678 41.9822 0
    endloop
  endfacet
  facet normal -0.382683 0.92388 0
    outer loop
      vertex 11.7678 41.9822 9.5
      vertex 11.7678 41.9822 0
      vertex 10 41.25 9.5
    endloop
  endfacet
  facet normal -0.382683 0.92388 0
    outer loop
      vertex 10 41.25 9.5
      vertex 11.7678 41.9822 0
      vertex 10 41.25 0
    endloop
  endfacet
  facet normal 0.382683 0.92388 0
    outer loop
      vertex 10 41.25 9.5
      vertex 10 41.25 0
      vertex 8.23223 41.9822 9.5
    endloop
  endfacet
  facet normal 0.382683 0.92388 0
    outer loop
      vertex 8.23223 41.9822 9.5
      vertex 10 41.25 0
      vertex 8.23223 41.9822 0
    endloop
  endfacet
  facet normal 0.92388 -0.382683 0
    outer loop
      vertex 8.23223 58.0178 0
      vertex 8.23223 58.0178 9.5
      vertex 7.5 56.25 9.5
    endloop
  endfacet
  facet normal 0.92388 -0.382683 0
    outer loop
      vertex 7.5 56.25 0
      vertex 8.23223 58.0178 0
      vertex 7.5 56.25 9.5
    endloop
  endfacet
  facet normal 0.92388 0.382683 0
    outer loop
      vertex 7.5 56.25 9.5
      vertex 8.23223 54.4822 9.5
      vertex 8.23223 54.4822 0
    endloop
  endfacet
  facet normal 0.92388 0.382683 0
    outer loop
      vertex 7.5 56.25 0
      vertex 7.5 56.25 9.5
      vertex 8.23223 54.4822 0
    endloop
  endfacet
  facet normal 0.382683 -0.92388 0
    outer loop
      vertex 10 58.75 0
      vertex 10 58.75 9.5
      vertex 8.23223 58.0178 9.5
    endloop
  endfacet
  facet normal 0.382683 -0.92388 0
    outer loop
      vertex 8.23223 58.0178 0
      vertex 10 58.75 0
      vertex 8.23223 58.0178 9.5
    endloop
  endfacet
  facet normal -0.382683 -0.92388 0
    outer loop
      vertex 11.7678 58.0178 0
      vertex 11.7678 58.0178 9.5
      vertex 10 58.75 9.5
    endloop
  endfacet
  facet normal -0.382683 -0.92388 0
    outer loop
      vertex 10 58.75 0
      vertex 11.7678 58.0178 0
      vertex 10 58.75 9.5
    endloop
  endfacet
  facet normal -0.92388 -0.382683 0
    outer loop
      vertex 12.5 56.25 9.5
      vertex 11.7678 58.0178 9.5
      vertex 12.5 56.25 0
    endloop
  endfacet
  facet normal -0.92388 -0.382683 0
    outer loop
      vertex 12.5 56.25 0
      vertex 11.7678 58.0178 9.5
      vertex 11.7678 58.0178 0
    endloop
  endfacet
  facet normal -0.92388 0.382683 0
    outer loop
      vertex 12.5 56.25 9.5
      vertex 12.5 56.25 0
      vertex 11.7678 54.4822 9.5
    endloop
  endfacet
  facet normal -0.92388 0.382683 0
    outer loop
      vertex 11.7678 54.4822 9.5
      vertex 12.5 56.25 0
      vertex 11.7678 54.4822 0
    endloop
  endfacet
  facet normal -0.382683 0.92388 0
    outer loop
      vertex 11.7678 54.4822 9.5
      vertex 11.7678 54.4822 0
      vertex 10 53.75 9.5
    endloop
  endfacet
  facet normal -0.382683 0.92388 0
    outer loop
      vertex 10 53.75 9.5
      vertex 11.7678 54.4822 0
      vertex 10 53.75 0
    endloop
  endfacet
  facet normal 0.382683 0.92388 0
    outer loop
      vertex 10 53.75 9.5
      vertex 10 53.75 0
      vertex 8.23223 54.4822 9.5
    endloop
  endfacet
  facet normal 0.382683 0.92388 0
    outer loop
      vertex 8.23223 54.4822 9.5
      vertex 10 53.75 0
      vertex 8.23223 54.4822 0
    endloop
  endfacet
  facet normal 0.92388 -0.382683 0
    outer loop
      vertex 8.23223 70.5178 0
      vertex 8.23223 70.5178 9.5
      vertex 7.5 68.75 9.5
    endloop
  endfacet
  facet normal 0.92388 -0.382683 0
    outer loop
      vertex 7.5 68.75 0
      vertex 8.23223 70.5178 0
      vertex 7.5 68.75 9.5
    endloop
  endfacet
  facet normal 0.92388 0.382683 0
    outer loop
      vertex 7.5 68.75 9.5
      vertex 8.23223 66.9822 9.5
      vertex 8.23223 66.9822 0
    endloop
  endfacet
  facet normal 0.92388 0.382683 0
    outer loop
      vertex 7.5 68.75 0
      vertex 7.5 68.75 9.5
      vertex 8.23223 66.9822 0
    endloop
  endfacet
  facet normal 0.382683 -0.92388 0
    outer loop
      vertex 10 71.25 0
      vertex 10 71.25 9.5
      vertex 8.23223 70.5178 9.5
    endloop
  endfacet
  facet normal 0.382683 -0.92388 0
    outer loop
      vertex 8.23223 70.5178 0
      vertex 10 71.25 0
      vertex 8.23223 70.5178 9.5
    endloop
  endfacet
  facet normal -0.382683 -0.92388 0
    outer loop
      vertex 11.7678 70.5178 0
      vertex 11.7678 70.5178 9.5
      vertex 10 71.25 9.5
    endloop
  endfacet
  facet normal -0.382683 -0.92388 0
    outer loop
      vertex 10 71.25 0
      vertex 11.7678 70.5178 0
      vertex 10 71.25 9.5
    endloop
  endfacet
  facet normal -0.92388 -0.382683 0
    outer loop
      vertex 12.5 68.75 9.5
      vertex 11.7678 70.5178 9.5
      vertex 12.5 68.75 0
    endloop
  endfacet
  facet normal -0.92388 -0.382683 0
    outer loop
      vertex 12.5 68.75 0
      vertex 11.7678 70.5178 9.5
      vertex 11.7678 70.5178 0
    endloop
  endfacet
  facet normal -0.92388 0.382683 0
    outer loop
      vertex 12.5 68.75 9.5
      vertex 12.5 68.75 0
      vertex 11.7678 66.9822 9.5
    endloop
  endfacet
  facet normal -0.92388 0.382683 0
    outer loop
      vertex 11.7678 66.9822 9.5
      vertex 12.5 68.75 0
      vertex 11.7678 66.9822 0
    endloop
  endfacet
  facet normal -0.382683 0.92388 0
    outer loop
      vertex 11.7678 66.9822 9.5
      vertex 11.7678 66.9822 0
      vertex 10 66.25 9.5
    endloop
  endfacet
  facet normal -0.382683 0.92388 0
    outer loop
      vertex 10 66.25 9.5
      vertex 11.7678 66.9822 0
      vertex 10 66.25 0
    endloop
  endfacet
  facet normal 0.382683 0.92388 0
    outer loop
      vertex 10 66.25 9.5
      vertex 10 66.25 0
      vertex 8.23223 66.9822 9.5
    endloop
  endfacet
  facet normal 0.382683 0.92388 0
    outer loop
      vertex 8.23223 66.9822 9.5
      vertex 10 66.25 0
      vertex 8.23223 66.9822 0
    endloop
  endfacet
  facet normal 0.92388 -0.382683 0
    outer loop
      vertex 8.23223 83.0178 0
      vertex 8.23223 83.0178 9.5
      vertex 7.5 81.25 9.5
    endloop
  endfacet
  facet normal 0.92388 -0.382683 0
    outer loop
      vertex 7.5 81.25 0
      vertex 8.23223 83.0178 0
      vertex 7.5 81.25 9.5
    endloop
  endfacet
  facet normal 0.92388 0.382683 0
    outer loop
      vertex 7.5 81.25 9.5
      vertex 8.23223 79.4822 9.5
      vertex 8.23223 79.4822 0
    endloop
  endfacet
  facet normal 0.92388 0.382683 0
    outer loop
      vertex 7.5 81.25 0
      vertex 7.5 81.25 9.5
      vertex 8.23223 79.4822 0
    endloop
  endfacet
  facet normal 0.382683 -0.92388 0
    outer loop
      vertex 10 83.75 0
      vertex 10 83.75 9.5
      vertex 8.23223 83.0178 9.5
    endloop
  endfacet
  facet normal 0.382683 -0.92388 0
    outer loop
      vertex 8.23223 83.0178 0
      vertex 10 83.75 0
      vertex 8.23223 83.0178 9.5
    endloop
  endfacet
  facet normal -0.382683 -0.92388 0
    outer loop
      vertex 11.7678 83.0178 0
      vertex 11.7678 83.0178 9.5
      vertex 10 83.75 9.5
    endloop
  endfacet
  facet normal -0.382683 -0.92388 0
    outer loop
      vertex 10 83.75 0
      vertex 11.7678 83.0178 0
      vertex 10 83.75 9.5
    endloop
  endfacet
  facet normal -0.92388 -0.382683 0
    outer loop
      vertex 12.5 81.25 9.5
      vertex 11.7678 83.0178 9.5
      vertex 12.5 81.25 0
    endloop
  endfacet
  facet normal -0.92388 -0.382683 0
    outer loop
      vertex 12.5 81.25 0
      vertex 11.7678 83.0178 9.5
      vertex 11.7678 83.0178 0
    endloop
  endfacet
  facet normal -0.92388 0.382683 0
    outer loop
      vertex 12.5 81.25 9.5
      vertex 12.5 81.25 0
      vertex 11.7678 79.4822 9.5
    endloop
  endfacet
  facet normal -0.92388 0.382683 0
    outer loop
      vertex 11.7678 79.4822 9.5
      vertex 12.5 81.25 0
      vertex 11.7678 79.4822 0
    endloop
  endfacet
  facet normal -0.382683 0.92388 0
    outer loop
      vertex 11.7678 79.4822 9.5
      vertex 11.7678 79.4822 0
      vertex 10 78.75 9.5
    endloop
  endfacet
  facet normal -0.382683 0.92388 0
    outer loop
      vertex 10 78.75 9.5
      vertex 11.7678 79.4822 0
      vertex 10 78.75 0
    endloop
  endfacet
  facet normal 0.382683 0.92388 0
    outer loop
      vertex 10 78.75 9.5
      vertex 10 78.75 0
      vertex 8.23223 79.4822 9.5
    endloop
  endfacet
  facet normal 0.382683 0.92388 0
    outer loop
      vertex 8.23223 79.4822 9.5
      vertex 10 78.75 0
      vertex 8.23223 79.4822 0
    endloop
  endfacet
  facet normal 0 0 1
    outer loop
      vertex 15 100 49
      vertex 15 90.8 49
      vertex 25 90.8 49
    endloop
  endfacet
  facet normal 0 0 1
    outer loop
      vertex 25 100 49
      vertex 15 100 49
      vertex 25 90.8 49
    endloop
  endfacet
  facet normal -1 0 0
    outer loop
      vertex 15 100 49
      vertex 15 100 44
      vertex 15 90.8 49
    endloop
  endfacet
  facet normal -1 0 0
    outer loop
      vertex 15 90.8 49
      vertex 15 100 44
      vertex 15 90.8 44
    endloop
  endfacet
  facet normal 0 0 1
    outer loop
      vertex 15 90.8 44
      vertex 15 100 44
      vertex 5 100 44
    endloop
  endfacet
  facet normal 0 0 1
    outer loop
      vertex 5 90.8 44
      vertex 15 90.8 44
      vertex 5 100 44
    endloop
  endfacet
  facet normal 1 0 0
    outer loop
      vertex 5 100 44
      vertex 5 100 49
      vertex 5 90.8 49
    endloop
  endfacet
  facet normal 1 0 0
    outer loop
      vertex 5 90.8 44
      vertex 5 100 44
      vertex 5 90.8 49
    endloop
  endfacet
  facet normal 1 0 0
    outer loop
      vertex 24.675 75.325 9.5
      vertex 24.675 75.325 7.5
      vertex 24.675 90.8 7.5
    endloop
  endfacet
  facet normal 1 0 0
    outer loop
      vertex 24.675 90.8 9.5
      vertex 24.675 75.325 9.5
      vertex 24.675 90.8 7.5
    endloop
  endfacet
  facet normal 0 0 1
    outer loop
      vertex 10 78.75 9.5
      vertex 0.325 75.325 9.5
      vertex 24.675 75.325 9.5
    endloop
  endfacet
  facet normal 0 0 1
    outer loop
      vertex 24.675 90.8 9.5
      vertex 0.325 90.8 9.5
      vertex 24.675 75.325 9.5
    endloop
  endfacet
  facet normal 0 0 1
    outer loop
      vertex 0.325 90.8 9.5
      vertex 0.325 75.325 9.5
      vertex 8.23223 79.4822 9.5
    endloop
  endfacet
  facet normal 0 0 1
    outer loop
      vertex 11.7678 79.4822 9.5
      vertex 10 78.75 9.5
      vertex 24.675 75.325 9.5
    endloop
  endfacet
  facet normal 0 0 1
    outer loop
      vertex 0.325 90.8 9.5
      vertex 8.23223 79.4822 9.5
      vertex 7.5 81.25 9.5
    endloop
  endfacet
  facet normal 0 0 1
    outer loop
      vertex 0.325 90.8 9.5
      vertex 7.5 81.25 9.5
      vertex 8.23223 83.0178 9.5
    endloop
  endfacet
  facet normal 0 0 1
    outer loop
      vertex 0.325 90.8 9.5
      vertex 8.23223 83.0178 9.5
      vertex 10 83.75 9.5
    endloop
  endfacet
  facet normal 0 0 1
    outer loop
      vertex 0.325 90.8 9.5
      vertex 11.7678 83.0178 9.5
      vertex 24.675 75.325 9.5
    endloop
  endfacet
  facet normal 0 0 1
    outer loop
      vertex 0.325 90.8 9.5
      vertex 10 83.75 9.5
      vertex 11.7678 83.0178 9.5
    endloop
  endfacet
  facet normal 0 0 1
    outer loop
      vertex 8.23223 79.4822 9.5
      vertex 0.325 75.325 9.5
      vertex 10 78.75 9.5
    endloop
  endfacet
  facet normal 0 0 1
    outer loop
      vertex 11.7678 83.0178 9.5
      vertex 12.5 81.25 9.5
      vertex 24.675 75.325 9.5
    endloop
  endfacet
  facet normal 0 0 1
    outer loop
      vertex 12.5 81.25 9.5
      vertex 11.7678 79.4822 9.5
      vertex 24.675 75.325 9.5
    endloop
  endfacet
  facet normal -1 0 0
    outer loop
      vertex 0.325 75.325 7.5
      vertex 0.325 75.325 9.5
      vertex 0.325 90.8 7.5
    endloop
  endfacet
  facet normal -1 0 0
    outer loop
      vertex 0.325 90.8 7.5
      vertex 0.325 75.325 9.5
      vertex 0.325 90.8 9.5
    endloop
  endfacet
  facet normal 0 -1 0
    outer loop
      vertex 0.325 75.325 9.5
      vertex 0.325 75.325 7.5
      vertex 24.675 75.325 7.5
    endloop
  endfacet
  facet normal 0 -1 0
    outer loop
      vertex 24.675 75.325 9.5
      vertex 0.325 75.325 9.5
      vertex 24.675 75.325 7.5
    endloop
  endfacet
  facet normal 1 0 0
    outer loop
      vertex 24.675 9.2 9.5
      vertex 24.675 9.2 7.5
      vertex 24.675 24.675 7.5
    endloop
  endfacet
  facet normal 1 0 0
    outer loop
      vertex 24.675 24.675 9.5
      vertex 24.675 9.2 9.5
      vertex 24.675 24.675 7.5
    endloop
  endfacet
  facet normal 0 1 0
    outer loop
      vertex 0.325 24.675 7.5
      vertex 0.325 24.675 9.5
      vertex 24.675 24.675 7.5
    endloop
  endfacet
  facet normal 0 1 0
    outer loop
      vertex 24.675 24.675 7.5
      vertex 0.325 24.675 9.5
      vertex 24.675 24.675 9.5
    endloop
  endfacet
  facet normal -1 0 0
    outer loop
      vertex 0.325 9.2 7.5
      vertex 0.325 9.2 9.5
      vertex 0.325 24.675 7.5
    endloop
  endfacet
  facet normal -1 0 0
    outer loop
      vertex 0.325 24.675 7.5
      vertex 0.325 9.2 9.5
      vertex 0.325 24.675 9.5
    endloop
  endfacet
  facet normal -1 0 0
    outer loop
      vertex 0.325 25.325 7.5
      vertex 0.325 25.325 9.5
      vertex 0.325 49.675 7.5
    endloop
  endfacet
  facet normal -1 0 0
    outer loop
      vertex 0.325 49.675 7.5
      vertex 0.325 25.325 9.5
      vertex 0.325 49.675 9.5
    endloop
  endfacet
  facet normal 0 -1 0
    outer loop
      vertex 0.325 25.325 9.5
      vertex 0.325 25.325 7.5
      vertex 24.675 25.325 7.5
    endloop
  endfacet
  facet normal 0 -1 0
    outer loop
      vertex 24.675 25.325 9.5
      vertex 0.325 25.325 9.5
      vertex 24.675 25.325 7.5
    endloop
  endfacet
  facet normal 1 0 0
    outer loop
      vertex 24.675 25.325 9.5
      vertex 24.675 25.325 7.5
      vertex 24.675 49.675 7.5
    endloop
  endfacet
  facet normal 1 0 0
    outer loop
      vertex 24.675 49.675 9.5
      vertex 24.675 25.325 9.5
      vertex 24.675 49.675 7.5
    endloop
  endfacet
  facet normal 0 1 0
    outer loop
      vertex 0.325 49.675 7.5
      vertex 0.325 49.675 9.5
      vertex 24.675 49.675 7.5
    endloop
  endfacet
  facet normal 0 1 0
    outer loop
      vertex 24.675 49.675 7.5
      vertex 0.325 49.675 9.5
      vertex 24.675 49.675 9.5
    endloop
  endfacet
  facet normal -1 0 0
    outer loop
      vertex 0.325 50.325 7.5
      vertex 0.325 50.325 9.5
      vertex 0.325 74.675 7.5
    endloop
  endfacet
  facet normal -1 0 0
    outer loop
      vertex 0.325 74.675 7.5
      vertex 0.325 50.325 9.5
      vertex 0.325 74.675 9.5
    endloop
  endfacet
  facet normal 0 -1 0
    outer loop
      vertex 0.325 50.325 9.5
      vertex 0.325 50.325 7.5
      vertex 24.675 50.325 7.5
    endloop
  endfacet
  facet normal 0 -1 0
    outer loop
      vertex 24.675 50.325 9.5
      vertex 0.325 50.325 9.5
      vertex 24.675 50.325 7.5
    endloop
  endfacet
  facet normal 1 0 0
    outer loop
      vertex 24.675 50.325 9.5
      vertex 24.675 50.325 7.5
      vertex 24.675 74.675 7.5
    endloop
  endfacet
  facet normal 1 0 0
    outer loop
      vertex 24.675 74.675 9.5
      vertex 24.675 50.325 9.5
      vertex 24.675 74.675 7.5
    endloop
  endfacet
  facet normal 0 1 0
    outer loop
      vertex 0.325 74.675 7.5
      vertex 0.325 74.675 9.5
      vertex 24.675 74.675 7.5
    endloop
  endfacet
  facet normal 0 1 0
    outer loop
      vertex 24.675 74.675 7.5
      vertex 0.325 74.675 9.5
      vertex 24.675 74.675 9.5
    endloop
  endfacet
  facet normal 0 0 1
    outer loop
      vertex 8.23223 16.9822 9.5
      vertex 0.325 9.2 9.5
      vertex 24.675 9.2 9.5
    endloop
  endfacet
  facet normal 0 0 1
    outer loop
      vertex 10 16.25 9.5
      vertex 8.23223 16.9822 9.5
      vertex 24.675 9.2 9.5
    endloop
  endfacet
  facet normal 0 0 1
    outer loop
      vertex 0.325 24.675 9.5
      vertex 0.325 9.2 9.5
      vertex 8.23223 16.9822 9.5
    endloop
  endfacet
  facet normal 0 0 1
    outer loop
      vertex 0.325 24.675 9.5
      vertex 8.23223 16.9822 9.5
      vertex 7.5 18.75 9.5
    endloop
  endfacet
  facet normal 0 0 1
    outer loop
      vertex 11.7678 16.9822 9.5
      vertex 10 16.25 9.5
      vertex 24.675 9.2 9.5
    endloop
  endfacet
  facet normal 0 0 1
    outer loop
      vertex 10 21.25 9.5
      vertex 0.325 24.675 9.5
      vertex 8.23223 20.5178 9.5
    endloop
  endfacet
  facet normal 0 0 1
    outer loop
      vertex 12.5 18.75 9.5
      vertex 11.7678 16.9822 9.5
      vertex 24.675 9.2 9.5
    endloop
  endfacet
  facet normal 0 0 1
    outer loop
      vertex 24.675 24.675 9.5
      vertex 0.325 24.675 9.5
      vertex 10 21.25 9.5
    endloop
  endfacet
  facet normal 0 0 1
    outer loop
      vertex 24.675 24.675 9.5
      vertex 11.7678 20.5178 9.5
      vertex 24.675 9.2 9.5
    endloop
  endfacet
  facet normal 0 0 1
    outer loop
      vertex 11.7678 20.5178 9.5
      vertex 12.5 18.75 9.5
      vertex 24.675 9.2 9.5
    endloop
  endfacet
  facet normal 0 0 1
    outer loop
      vertex 10 21.25 9.5
      vertex 11.7678 20.5178 9.5
      vertex 24.675 24.675 9.5
    endloop
  endfacet
  facet normal 0 0 1
    outer loop
      vertex 7.5 18.75 9.5
      vertex 8.23223 20.5178 9.5
      vertex 0.325 24.675 9.5
    endloop
  endfacet
  facet normal 0 0 1
    outer loop
      vertex 10 28.75 9.5
      vertex 0.325 25.325 9.5
      vertex 24.675 25.325 9.5
    endloop
  endfacet
  facet normal 0 0 1
    outer loop
      vertex 8.23223 41.9822 9.5
      vertex 0.325 49.675 9.5
      vertex 24.675 25.325 9.5
    endloop
  endfacet
  facet normal 0 0 1
    outer loop
      vertex 10 46.25 9.5
      vertex 11.7678 45.5178 9.5
      vertex 24.675 49.675 9.5
    endloop
  endfacet
  facet normal 0 0 1
    outer loop
      vertex 7.5 31.25 9.5
      vertex 0.325 25.325 9.5
      vertex 8.23223 29.4822 9.5
    endloop
  endfacet
  facet normal 0 0 1
    outer loop
      vertex 11.7678 33.0178 9.5
      vertex 12.5 31.25 9.5
      vertex 24.675 25.325 9.5
    endloop
  endfacet
  facet normal 0 0 1
    outer loop
      vertex 0.325 49.675 9.5
      vertex 0.325 25.325 9.5
      vertex 7.5 31.25 9.5
    endloop
  endfacet
  facet normal 0 0 1
    outer loop
      vertex 11.7678 29.4822 9.5
      vertex 10 28.75 9.5
      vertex 24.675 25.325 9.5
    endloop
  endfacet
  facet normal 0 0 1
    outer loop
      vertex 12.5 31.25 9.5
      vertex 11.7678 29.4822 9.5
      vertex 24.675 25.325 9.5
    endloop
  endfacet
  facet normal 0 0 1
    outer loop
      vertex 0.325 49.675 9.5
      vertex 8.23223 33.0178 9.5
      vertex 10 33.75 9.5
    endloop
  endfacet
  facet normal 0 0 1
    outer loop
      vertex 0.325 49.675 9.5
      vertex 11.7678 33.0178 9.5
      vertex 24.675 25.325 9.5
    endloop
  endfacet
  facet normal 0 0 1
    outer loop
      vertex 0.325 49.675 9.5
      vertex 10 33.75 9.5
      vertex 11.7678 33.0178 9.5
    endloop
  endfacet
  facet normal 0 0 1
    outer loop
      vertex 8.23223 29.4822 9.5
      vertex 0.325 25.325 9.5
      vertex 10 28.75 9.5
    endloop
  endfacet
  facet normal 0 0 1
    outer loop
      vertex 10 41.25 9.5
      vertex 8.23223 41.9822 9.5
      vertex 24.675 25.325 9.5
    endloop
  endfacet
  facet normal 0 0 1
    outer loop
      vertex 7.5 43.75 9.5
      vertex 0.325 49.675 9.5
      vertex 8.23223 41.9822 9.5
    endloop
  endfacet
  facet normal 0 0 1
    outer loop
      vertex 8.23223 45.5178 9.5
      vertex 0.325 49.675 9.5
      vertex 7.5 43.75 9.5
    endloop
  endfacet
  facet normal 0 0 1
    outer loop
      vertex 10 46.25 9.5
      vertex 0.325 49.675 9.5
      vertex 8.23223 45.5178 9.5
    endloop
  endfacet
  facet normal 0 0 1
    outer loop
      vertex 24.675 49.675 9.5
      vertex 0.325 49.675 9.5
      vertex 10 46.25 9.5
    endloop
  endfacet
  facet normal 0 0 1
    outer loop
      vertex 24.675 49.675 9.5
      vertex 12.5 43.75 9.5
      vertex 24.675 25.325 9.5
    endloop
  endfacet
  facet normal 0 0 1
    outer loop
      vertex 12.5 43.75 9.5
      vertex 11.7678 41.9822 9.5
      vertex 24.675 25.325 9.5
    endloop
  endfacet
  facet normal 0 0 1
    outer loop
      vertex 11.7678 41.9822 9.5
      vertex 10 41.25 9.5
      vertex 24.675 25.325 9.5
    endloop
  endfacet
  facet normal 0 0 1
    outer loop
      vertex 7.5 31.25 9.5
      vertex 8.23223 33.0178 9.5
      vertex 0.325 49.675 9.5
    endloop
  endfacet
  facet normal 0 0 1
    outer loop
      vertex 11.7678 45.5178 9.5
      vertex 12.5 43.75 9.5
      vertex 24.675 49.675 9.5
    endloop
  endfacet
  facet normal 0 0 1
    outer loop
      vertex 10 53.75 9.5
      vertex 0.325 50.325 9.5
      vertex 24.675 50.325 9.5
    endloop
  endfacet
  facet normal 0 0 1
    outer loop
      vertex 8.23223 66.9822 9.5
      vertex 0.325 74.675 9.5
      vertex 24.675 50.325 9.5
    endloop
  endfacet
  facet normal 0 0 1
    outer loop
      vertex 10 71.25 9.5
      vertex 11.7678 70.5178 9.5
      vertex 24.675 74.675 9.5
    endloop
  endfacet
  facet normal 0 0 1
    outer loop
      vertex 7.5 56.25 9.5
      vertex 0.325 50.325 9.5
      vertex 8.23223 54.4822 9.5
    endloop
  endfacet
  facet normal 0 0 1
    outer loop
      vertex 11.7678 58.0178 9.5
      vertex 12.5 56.25 9.5
      vertex 24.675 50.325 9.5
    endloop
  endfacet
  facet normal 0 0 1
    outer loop
      vertex 0.325 74.675 9.5
      vertex 0.325 50.325 9.5
      vertex 7.5 56.25 9.5
    endloop
  endfacet
  facet normal 0 0 1
    outer loop
      vertex 11.7678 54.4822 9.5
      vertex 10 53.75 9.5
      vertex 24.675 50.325 9.5
    endloop
  endfacet
  facet normal 0 0 1
    outer loop
      vertex 12.5 56.25 9.5
      vertex 11.7678 54.4822 9.5
      vertex 24.675 50.325 9.5
    endloop
  endfacet
  facet normal 0 0 1
    outer loop
      vertex 0.325 74.675 9.5
      vertex 8.23223 58.0178 9.5
      vertex 10 58.75 9.5
    endloop
  endfacet
  facet normal 0 0 1
    outer loop
      vertex 0.325 74.675 9.5
      vertex 11.7678 58.0178 9.5
      vertex 24.675 50.325 9.5
    endloop
  endfacet
  facet normal 0 0 1
    outer loop
      vertex 0.325 74.675 9.5
      vertex 10 58.75 9.5
      vertex 11.7678 58.0178 9.5
    endloop
  endfacet
  facet normal 0 0 1
    outer loop
      vertex 8.23223 54.4822 9.5
      vertex 0.325 50.325 9.5
      vertex 10 53.75 9.5
    endloop
  endfacet
  facet normal 0 0 1
    outer loop
      vertex 10 66.25 9.5
      vertex 8.23223 66.9822 9.5
      vertex 24.675 50.325 9.5
    endloop
  endfacet
  facet normal 0 0 1
    outer loop
      vertex 7.5 68.75 9.5
      vertex 0.325 74.675 9.5
      vertex 8.23223 66.9822 9.5
    endloop
  endfacet
  facet normal 0 0 1
    outer loop
      vertex 8.23223 70.5178 9.5
      vertex 0.325 74.675 9.5
      vertex 7.5 68.75 9.5
    endloop
  endfacet
  facet normal 0 0 1
    outer loop
      vertex 10 71.25 9.5
      vertex 0.325 74.675 9.5
      vertex 8.23223 70.5178 9.5
    endloop
  endfacet
  facet normal 0 0 1
    outer loop
      vertex 24.675 74.675 9.5
      vertex 0.325 74.675 9.5
      vertex 10 71.25 9.5
    endloop
  endfacet
  facet normal 0 0 1
    outer loop
      vertex 24.675 74.675 9.5
      vertex 12.5 68.75 9.5
      vertex 24.675 50.325 9.5
    endloop
  endfacet
  facet normal 0 0 1
    outer loop
      vertex 12.5 68.75 9.5
      vertex 11.7678 66.9822 9.5
      vertex 24.675 50.325 9.5
    endloop
  endfacet
  facet normal 0 0 1
    outer loop
      vertex 11.7678 66.9822 9.5
      vertex 10 66.25 9.5
      vertex 24.675 50.325 9.5
    endloop
  endfacet
  facet normal 0 0 1
    outer loop
      vertex 7.5 56.25 9.5
      vertex 8.23223 58.0178 9.5
      vertex 0.325 74.675 9.5
    endloop
  endfacet
  facet normal 0 0 1
    outer loop
      vertex 11.7678 70.5178 9.5
      vertex 12.5 68.75 9.5
      vertex 24.675 74.675 9.5
    endloop
  endfacet
endsolid OpenSCAD_Model
