solid OpenSCAD_Model
  facet normal -1 0 0
    outer loop
      vertex 0 0 0
      vertex 0 0 49
      vertex 0 9.2 7.5
    endloop
  endfacet
  facet normal -1 0 0
    outer loop
      vertex 0 0 0
      vertex 0 9.2 7.5
      vertex 0 50 0
    endloop
  endfacet
  facet normal -1 0 0
    outer loop
      vertex 0 40.8 49
      vertex 0 50 0
      vertex 0 40.8 7.5
    endloop
  endfacet
  facet normal -1 0 0
    outer loop
      vertex 0 9.2 7.5
      vertex 0 40.8 7.5
      vertex 0 50 0
    endloop
  endfacet
  facet normal -1 0 0
    outer loop
      vertex 0 50 0
      vertex 0 40.8 49
      vertex 0 50 49
    endloop
  endfacet
  facet normal -1 0 0
    outer loop
      vertex 0 9.2 7.5
      vertex 0 0 49
      vertex 0 9.2 49
    endloop
  endfacet
  facet normal 0 -1 0
    outer loop
      vertex 0 0 49
      vertex 0 0 0
      vertex 25 0 0
    endloop
  endfacet
  facet normal 0 -1 0
    outer loop
      vertex 5 0 44
      vertex 0 0 49
      vertex 25 0 0
    endloop
  endfacet
  facet normal 0 -1 0
    outer loop
      vertex 25 0 49
      vertex 15 0 49
      vertex 25 0 0
    endloop
  endfacet
  facet normal 0 -1 0
    outer loop
      vertex 15 0 49
      vertex 15 0 44
      vertex 25 0 0
    endloop
  endfacet
  facet normal 0 -1 0
    outer loop
      vertex 15 0 44
      vertex 5 0 44
      vertex 25 0 0
    endloop
  endfacet
  facet normal 0 -1 0
    outer loop
      vertex 5 0 44
      vertex 5 0 49
      vertex 0 0 49
    endloop
  endfacet
  facet normal 0 0 -1
    outer loop
      vertex 11.7678 33.0178 0
      vertex 0 50 0
      vertex 25 50 0
    endloop
  endfacet
  facet normal 0 0 -1
    outer loop
      vertex 0 0 0
      vertex 0 50 0
      vertex 7.5 18.75 0
    endloop
  endfacet
  facet normal 0 0 -1
    outer loop
      vertex 0 0 0
      vertex 7.5 18.75 0
      vertex 8.23223 16.9822 0
    endloop
  endfacet
  facet normal 0 0 -1
    outer loop
      vertex 0 0 0
      vertex 8.23223 16.9822 0
      vertex 25 0 0
    endloop
  endfacet
  facet normal 0 0 -1
    outer loop
      vertex 7.5 31.25 0
      vertex 0 50 0
      vertex 8.23223 33.0178 0
    endloop
  endfacet
  facet normal 0 0 -1
    outer loop
      vertex 10 21.25 0
      vertex 0 50 0
      vertex 11.7678 20.5178 0
    endloop
  endfacet
  facet normal 0 0 -1
    outer loop
      vertex 8.23223 20.5178 0
      vertex 0 50 0
      vertex 10 21.25 0
    endloop
  endfacet
  facet normal 0 0 -1
    outer loop
      vertex 10 16.25 0
      vertex 11.7678 16.9822 0
      vertex 25 0 0
    endloop
  endfacet
  facet normal 0 0 -1
    outer loop
      vertex 11.7678 20.5178 0
      vertex 0 50 0
      vertex 12.5 18.75 0
    endloop
  endfacet
  facet normal 0 0 -1
    outer loop
      vertex 11.7678 16.9822 0
      vertex 12.5 18.75 0
      vertex 25 0 0
    endloop
  endfacet
  facet normal 0 0 -1
    outer loop
      vertex 7.5 18.75 0
      vertex 0 50 0
      vertex 8.23223 20.5178 0
    endloop
  endfacet
  facet normal 0 0 -1
    outer loop
      vertex 12.5 18.75 0
      vertex 0 50 0
      vertex 7.5 31.25 0
    endloop
  endfacet
  facet normal 0 0 -1
    outer loop
      vertex 12.5 18.75 0
      vertex 7.5 31.25 0
      vertex 8.23223 29.4822 0
    endloop
  endfacet
  facet normal 0 0 -1
    outer loop
      vertex 12.5 18.75 0
      vertex 8.23223 29.4822 0
      vertex 25 0 0
    endloop
  endfacet
  facet normal 0 0 -1
    outer loop
      vertex 10 28.75 0
      vertex 25 0 0
      vertex 8.23223 29.4822 0
    endloop
  endfacet
  facet normal 0 0 -1
    outer loop
      vertex 11.7678 29.4822 0
      vertex 25 0 0
      vertex 10 28.75 0
    endloop
  endfacet
  facet normal 0 0 -1
    outer loop
      vertex 10 33.75 0
      vertex 0 50 0
      vertex 11.7678 33.0178 0
    endloop
  endfacet
  facet normal 0 0 -1
    outer loop
      vertex 25 0 0
      vertex 11.7678 29.4822 0
      vertex 25 50 0
    endloop
  endfacet
  facet normal 0 0 -1
    outer loop
      vertex 8.23223 33.0178 0
      vertex 0 50 0
      vertex 10 33.75 0
    endloop
  endfacet
  facet normal 0 0 -1
    outer loop
      vertex 11.7678 29.4822 0
      vertex 12.5 31.25 0
      vertex 25 50 0
    endloop
  endfacet
  facet normal 0 0 -1
    outer loop
      vertex 12.5 31.25 0
      vertex 11.7678 33.0178 0
      vertex 25 50 0
    endloop
  endfacet
  facet normal 0 0 -1
    outer loop
      vertex 10 16.25 0
      vertex 25 0 0
      vertex 8.23223 16.9822 0
    endloop
  endfacet
  facet normal 0 1 0
    outer loop
      vertex 0 50 0
      vertex 0 50 49
      vertex 25 50 0
    endloop
  endfacet
  facet normal 0 1 0
    outer loop
      vertex 5 50 44
      vertex 0 50 49
      vertex 5 50 49
    endloop
  endfacet
  facet normal 0 1 0
    outer loop
      vertex 25 50 0
      vertex 0 50 49
      vertex 5 50 44
    endloop
  endfacet
  facet normal 0 1 0
    outer loop
      vertex 25 50 0
      vertex 15 50 44
      vertex 15 50 49
    endloop
  endfacet
  facet normal 0 1 0
    outer loop
      vertex 25 50 0
      vertex 15 50 49
      vertex 25 50 49
    endloop
  endfacet
  facet normal 0 1 0
    outer loop
      vertex 15 50 44
      vertex 25 50 0
      vertex 5 50 44
    endloop
  endfacet
  facet normal 0 0 1
    outer loop
      vertex 0 50 49
      vertex 0 40.8 49
      vertex 5 40.8 49
    endloop
  endfacet
  facet normal 0 0 1
    outer loop
      vertex 5 50 49
      vertex 0 50 49
      vertex 5 40.8 49
    endloop
  endfacet
  facet normal 0 -1 0
    outer loop
      vertex 0 40.8 49
      vertex 0 40.8 7.5
      vertex 0.325 40.8 7.5
    endloop
  endfacet
  facet normal 0 -1 0
    outer loop
      vertex 24.675 40.8 9.5
      vertex 0 40.8 49
      vertex 0.325 40.8 9.5
    endloop
  endfacet
  facet normal 0 -1 0
    outer loop
      vertex 0.325 40.8 9.5
      vertex 0 40.8 49
      vertex 0.325 40.8 7.5
    endloop
  endfacet
  facet normal 0 -1 0
    outer loop
      vertex 5 40.8 44
      vertex 0 40.8 49
      vertex 24.675 40.8 9.5
    endloop
  endfacet
  facet normal 0 -1 0
    outer loop
      vertex 25 40.8 7.5
      vertex 24.675 40.8 9.5
      vertex 24.675 40.8 7.5
    endloop
  endfacet
  facet normal 0 -1 0
    outer loop
      vertex 25 40.8 49
      vertex 24.675 40.8 9.5
      vertex 25 40.8 7.5
    endloop
  endfacet
  facet normal 0 -1 0
    outer loop
      vertex 25 40.8 49
      vertex 15 40.8 49
      vertex 24.675 40.8 9.5
    endloop
  endfacet
  facet normal 0 -1 0
    outer loop
      vertex 15 40.8 49
      vertex 15 40.8 44
      vertex 24.675 40.8 9.5
    endloop
  endfacet
  facet normal 0 -1 0
    outer loop
      vertex 15 40.8 44
      vertex 5 40.8 44
      vertex 24.675 40.8 9.5
    endloop
  endfacet
  facet normal 0 -1 0
    outer loop
      vertex 5 40.8 44
      vertex 5 40.8 49
      vertex 0 40.8 49
    endloop
  endfacet
  facet normal 0 0 1
    outer loop
      vertex 0 40.8 7.5
      vertex 0 9.2 7.5
      vertex 0.325 9.2 7.5
    endloop
  endfacet
  facet normal 0 0 1
    outer loop
      vertex 0.325 25.325 7.5
      vertex 0 40.8 7.5
      vertex 0.325 24.675 7.5
    endloop
  endfacet
  facet normal 0 0 1
    outer loop
      vertex 0.325 24.675 7.5
      vertex 0 40.8 7.5
      vertex 0.325 9.2 7.5
    endloop
  endfacet
  facet normal 0 0 1
    outer loop
      vertex 0.325 25.325 7.5
      vertex 0.325 40.8 7.5
      vertex 0 40.8 7.5
    endloop
  endfacet
  facet normal 0 0 1
    outer loop
      vertex 25 9.2 7.5
      vertex 24.675 24.675 7.5
      vertex 24.675 9.2 7.5
    endloop
  endfacet
  facet normal 0 0 1
    outer loop
      vertex 25 40.8 7.5
      vertex 24.675 24.675 7.5
      vertex 25 9.2 7.5
    endloop
  endfacet
  facet normal 0 0 1
    outer loop
      vertex 25 40.8 7.5
      vertex 24.675 25.325 7.5
      vertex 24.675 24.675 7.5
    endloop
  endfacet
  facet normal 0 0 1
    outer loop
      vertex 25 40.8 7.5
      vertex 24.675 40.8 7.5
      vertex 24.675 25.325 7.5
    endloop
  endfacet
  facet normal 0 0 1
    outer loop
      vertex 24.675 24.675 7.5
      vertex 0.325 25.325 7.5
      vertex 0.325 24.675 7.5
    endloop
  endfacet
  facet normal 0 0 1
    outer loop
      vertex 24.675 25.325 7.5
      vertex 0.325 25.325 7.5
      vertex 24.675 24.675 7.5
    endloop
  endfacet
  facet normal 0 1 0
    outer loop
      vertex 0 9.2 7.5
      vertex 0 9.2 49
      vertex 0.325 9.2 7.5
    endloop
  endfacet
  facet normal 0 1 0
    outer loop
      vertex 0.325 9.2 9.5
      vertex 0 9.2 49
      vertex 5 9.2 49
    endloop
  endfacet
  facet normal 0 1 0
    outer loop
      vertex 15 9.2 44
      vertex 15 9.2 49
      vertex 25 9.2 49
    endloop
  endfacet
  facet normal 0 1 0
    outer loop
      vertex 24.675 9.2 7.5
      vertex 25 9.2 49
      vertex 25 9.2 7.5
    endloop
  endfacet
  facet normal 0 1 0
    outer loop
      vertex 24.675 9.2 9.5
      vertex 25 9.2 49
      vertex 24.675 9.2 7.5
    endloop
  endfacet
  facet normal 0 1 0
    outer loop
      vertex 0.325 9.2 7.5
      vertex 0 9.2 49
      vertex 0.325 9.2 9.5
    endloop
  endfacet
  facet normal 0 1 0
    outer loop
      vertex 0.325 9.2 9.5
      vertex 5 9.2 49
      vertex 5 9.2 44
    endloop
  endfacet
  facet normal 0 1 0
    outer loop
      vertex 0.325 9.2 9.5
      vertex 5 9.2 44
      vertex 15 9.2 44
    endloop
  endfacet
  facet normal 0 1 0
    outer loop
      vertex 0.325 9.2 9.5
      vertex 15 9.2 44
      vertex 25 9.2 49
    endloop
  endfacet
  facet normal 0 1 0
    outer loop
      vertex 0.325 9.2 9.5
      vertex 25 9.2 49
      vertex 24.675 9.2 9.5
    endloop
  endfacet
  facet normal 0 0 1
    outer loop
      vertex 0 9.2 49
      vertex 0 0 49
      vertex 5 0 49
    endloop
  endfacet
  facet normal 0 0 1
    outer loop
      vertex 5 9.2 49
      vertex 0 9.2 49
      vertex 5 0 49
    endloop
  endfacet
  facet normal 1 0 0
    outer loop
      vertex 5 9.2 44
      vertex 5 9.2 49
      vertex 5 0 49
    endloop
  endfacet
  facet normal 1 0 0
    outer loop
      vertex 5 0 44
      vertex 5 9.2 44
      vertex 5 0 49
    endloop
  endfacet
  facet normal 0 0 1
    outer loop
      vertex 15 0 44
      vertex 15 9.2 44
      vertex 5 9.2 44
    endloop
  endfacet
  facet normal 0 0 1
    outer loop
      vertex 5 0 44
      vertex 15 0 44
      vertex 5 9.2 44
    endloop
  endfacet
  facet normal -1 0 0
    outer loop
      vertex 15 9.2 49
      vertex 15 9.2 44
      vertex 15 0 49
    endloop
  endfacet
  facet normal -1 0 0
    outer loop
      vertex 15 0 49
      vertex 15 9.2 44
      vertex 15 0 44
    endloop
  endfacet
  facet normal 0 0 1
    outer loop
      vertex 15 9.2 49
      vertex 15 0 49
      vertex 25 0 49
    endloop
  endfacet
  facet normal 0 0 1
    outer loop
      vertex 25 9.2 49
      vertex 15 9.2 49
      vertex 25 0 49
    endloop
  endfacet
  facet normal 1 0 0
    outer loop
      vertex 25 40.8 7.5
      vertex 25 0 0
      vertex 25 50 0
    endloop
  endfacet
  facet normal 1 0 0
    outer loop
      vertex 25 9.2 7.5
      vertex 25 9.2 49
      vertex 25 0 49
    endloop
  endfacet
  facet normal 1 0 0
    outer loop
      vertex 25 50 49
      vertex 25 40.8 49
      vertex 25 50 0
    endloop
  endfacet
  facet normal 1 0 0
    outer loop
      vertex 25 9.2 7.5
      vertex 25 0 0
      vertex 25 40.8 7.5
    endloop
  endfacet
  facet normal 1 0 0
    outer loop
      vertex 25 0 49
      vertex 25 0 0
      vertex 25 9.2 7.5
    endloop
  endfacet
  facet normal 1 0 0
    outer loop
      vertex 25 40.8 49
      vertex 25 40.8 7.5
      vertex 25 50 0
    endloop
  endfacet
  facet normal 0.92388 -0.382683 0
    outer loop
      vertex 8.23223 20.5178 0
      vertex 8.23223 20.5178 9.5
      vertex 7.5 18.75 9.5
    endloop
  endfacet
  facet normal 0.92388 -0.382683 0
    outer loop
      vertex 7.5 18.75 0
      vertex 8.23223 20.5178 0
      vertex 7.5 18.75 9.5
    endloop
  endfacet
  facet normal 0.92388 0.382683 0
    outer loop
      vertex 7.5 18.75 9.5
      vertex 8.23223 16.9822 9.5
      vertex 8.23223 16.9822 0
    endloop
  endfacet
  facet normal 0.92388 0.382683 0
    outer loop
      vertex 7.5 18.75 0
      vertex 7.5 18.75 9.5
      vertex 8.23223 16.9822 0
    endloop
  endfacet
  facet normal 0.382683 -0.92388 0
    outer loop
      vertex 10 21.25 0
      vertex 10 21.25 9.5
      vertex 8.23223 20.5178 9.5
    endloop
  endfacet
  facet normal 0.382683 -0.92388 0
    outer loop
      vertex 8.23223 20.5178 0
      vertex 10 21.25 0
      vertex 8.23223 20.5178 9.5
    endloop
  endfacet
  facet normal -0.382683 -0.92388 0
    outer loop
      vertex 11.7678 20.5178 0
      vertex 11.7678 20.5178 9.5
      vertex 10 21.25 9.5
    endloop
  endfacet
  facet normal -0.382683 -0.92388 0
    outer loop
      vertex 10 21.25 0
      vertex 11.7678 20.5178 0
      vertex 10 21.25 9.5
    endloop
  endfacet
  facet normal -0.92388 -0.382683 0
    outer loop
      vertex 12.5 18.75 9.5
      vertex 11.7678 20.5178 9.5
      vertex 12.5 18.75 0
    endloop
  endfacet
  facet normal -0.92388 -0.382683 0
    outer loop
      vertex 12.5 18.75 0
      vertex 11.7678 20.5178 9.5
      vertex 11.7678 20.5178 0
    endloop
  endfacet
  facet normal -0.92388 0.382683 0
    outer loop
      vertex 12.5 18.75 9.5
      vertex 12.5 18.75 0
      vertex 11.7678 16.9822 9.5
    endloop
  endfacet
  facet normal -0.92388 0.382683 0
    outer loop
      vertex 11.7678 16.9822 9.5
      vertex 12.5 18.75 0
      vertex 11.7678 16.9822 0
    endloop
  endfacet
  facet normal -0.382683 0.92388 0
    outer loop
      vertex 11.7678 16.9822 9.5
      vertex 11.7678 16.9822 0
      vertex 10 16.25 9.5
    endloop
  endfacet
  facet normal -0.382683 0.92388 0
    outer loop
      vertex 10 16.25 9.5
      vertex 11.7678 16.9822 0
      vertex 10 16.25 0
    endloop
  endfacet
  facet normal 0.382683 0.92388 0
    outer loop
      vertex 10 16.25 9.5
      vertex 10 16.25 0
      vertex 8.23223 16.9822 9.5
    endloop
  endfacet
  facet normal 0.382683 0.92388 0
    outer loop
      vertex 8.23223 16.9822 9.5
      vertex 10 16.25 0
      vertex 8.23223 16.9822 0
    endloop
  endfacet
  facet normal 0.92388 -0.382683 0
    outer loop
      vertex 8.23223 33.0178 0
      vertex 8.23223 33.0178 9.5
      vertex 7.5 31.25 9.5
    endloop
  endfacet
  facet normal 0.92388 -0.382683 0
    outer loop
      vertex 7.5 31.25 0
      vertex 8.23223 33.0178 0
      vertex 7.5 31.25 9.5
    endloop
  endfacet
  facet normal 0.92388 0.382683 0
    outer loop
      vertex 7.5 31.25 9.5
      vertex 8.23223 29.4822 9.5
      vertex 8.23223 29.4822 0
    endloop
  endfacet
  facet normal 0.92388 0.382683 0
    outer loop
      vertex 7.5 31.25 0
      vertex 7.5 31.25 9.5
      vertex 8.23223 29.4822 0
    endloop
  endfacet
  facet normal 0.382683 -0.92388 0
    outer loop
      vertex 10 33.75 0
      vertex 10 33.75 9.5
      vertex 8.23223 33.0178 9.5
    endloop
  endfacet
  facet normal 0.382683 -0.92388 0
    outer loop
      vertex 8.23223 33.0178 0
      vertex 10 33.75 0
      vertex 8.23223 33.0178 9.5
    endloop
  endfacet
  facet normal -0.382683 -0.92388 0
    outer loop
      vertex 11.7678 33.0178 0
      vertex 11.7678 33.0178 9.5
      vertex 10 33.75 9.5
    endloop
  endfacet
  facet normal -0.382683 -0.92388 0
    outer loop
      vertex 10 33.75 0
      vertex 11.7678 33.0178 0
      vertex 10 33.75 9.5
    endloop
  endfacet
  facet normal -0.92388 -0.382683 0
    outer loop
      vertex 12.5 31.25 9.5
      vertex 11.7678 33.0178 9.5
      vertex 12.5 31.25 0
    endloop
  endfacet
  facet normal -0.92388 -0.382683 0
    outer loop
      vertex 12.5 31.25 0
      vertex 11.7678 33.0178 9.5
      vertex 11.7678 33.0178 0
    endloop
  endfacet
  facet normal -0.92388 0.382683 0
    outer loop
      vertex 12.5 31.25 9.5
      vertex 12.5 31.25 0
      vertex 11.7678 29.4822 9.5
    endloop
  endfacet
  facet normal -0.92388 0.382683 0
    outer loop
      vertex 11.7678 29.4822 9.5
      vertex 12.5 31.25 0
      vertex 11.7678 29.4822 0
    endloop
  endfacet
  facet normal -0.382683 0.92388 0
    outer loop
      vertex 11.7678 29.4822 9.5
      vertex 11.7678 29.4822 0
      vertex 10 28.75 9.5
    endloop
  endfacet
  facet normal -0.382683 0.92388 0
    outer loop
      vertex 10 28.75 9.5
      vertex 11.7678 29.4822 0
      vertex 10 28.75 0
    endloop
  endfacet
  facet normal 0.382683 0.92388 0
    outer loop
      vertex 10 28.75 9.5
      vertex 10 28.75 0
      vertex 8.23223 29.4822 9.5
    endloop
  endfacet
  facet normal 0.382683 0.92388 0
    outer loop
      vertex 8.23223 29.4822 9.5
      vertex 10 28.75 0
      vertex 8.23223 29.4822 0
    endloop
  endfacet
  facet normal 0 0 1
    outer loop
      vertex 15 50 49
      vertex 15 40.8 49
      vertex 25 40.8 49
    endloop
  endfacet
  facet normal 0 0 1
    outer loop
      vertex 25 50 49
      vertex 15 50 49
      vertex 25 40.8 49
    endloop
  endfacet
  facet normal -1 0 0
    outer loop
      vertex 15 50 49
      vertex 15 50 44
      vertex 15 40.8 49
    endloop
  endfacet
  facet normal -1 0 0
    outer loop
      vertex 15 40.8 49
      vertex 15 50 44
      vertex 15 40.8 44
    endloop
  endfacet
  facet normal 0 0 1
    outer loop
      vertex 15 40.8 44
      vertex 15 50 44
      vertex 5 50 44
    endloop
  endfacet
  facet normal 0 0 1
    outer loop
      vertex 5 40.8 44
      vertex 15 40.8 44
      vertex 5 50 44
    endloop
  endfacet
  facet normal 1 0 0
    outer loop
      vertex 5 50 44
      vertex 5 50 49
      vertex 5 40.8 49
    endloop
  endfacet
  facet normal 1 0 0
    outer loop
      vertex 5 40.8 44
      vertex 5 50 44
      vertex 5 40.8 49
    endloop
  endfacet
  facet normal 1 0 0
    outer loop
      vertex 24.675 25.325 9.5
      vertex 24.675 25.325 7.5
      vertex 24.675 40.8 7.5
    endloop
  endfacet
  facet normal 1 0 0
    outer loop
      vertex 24.675 40.8 9.5
      vertex 24.675 25.325 9.5
      vertex 24.675 40.8 7.5
    endloop
  endfacet
  facet normal 0 0 1
    outer loop
      vertex 10 28.75 9.5
      vertex 0.325 25.325 9.5
      vertex 24.675 25.325 9.5
    endloop
  endfacet
  facet normal 0 0 1
    outer loop
      vertex 24.675 40.8 9.5
      vertex 0.325 40.8 9.5
      vertex 24.675 25.325 9.5
    endloop
  endfacet
  facet normal 0 0 1
    outer loop
      vertex 0.325 40.8 9.5
      vertex 0.325 25.325 9.5
      vertex 8.23223 29.4822 9.5
    endloop
  endfacet
  facet normal 0 0 1
    outer loop
      vertex 11.7678 29.4822 9.5
      vertex 10 28.75 9.5
      vertex 24.675 25.325 9.5
    endloop
  endfacet
  facet normal 0 0 1
    outer loop
      vertex 0.325 40.8 9.5
      vertex 8.23223 29.4822 9.5
      vertex 7.5 31.25 9.5
    endloop
  endfacet
  facet normal 0 0 1
    outer loop
      vertex 0.325 40.8 9.5
      vertex 7.5 31.25 9.5
      vertex 8.23223 33.0178 9.5
    endloop
  endfacet
  facet normal 0 0 1
    outer loop
      vertex 0.325 40.8 9.5
      vertex 8.23223 33.0178 9.5
      vertex 10 33.75 9.5
    endloop
  endfacet
  facet normal 0 0 1
    outer loop
      vertex 0.325 40.8 9.5
      vertex 11.7678 33.0178 9.5
      vertex 24.675 25.325 9.5
    endloop
  endfacet
  facet normal 0 0 1
    outer loop
      vertex 0.325 40.8 9.5
      vertex 10 33.75 9.5
      vertex 11.7678 33.0178 9.5
    endloop
  endfacet
  facet normal 0 0 1
    outer loop
      vertex 8.23223 29.4822 9.5
      vertex 0.325 25.325 9.5
      vertex 10 28.75 9.5
    endloop
  endfacet
  facet normal 0 0 1
    outer loop
      vertex 11.7678 33.0178 9.5
      vertex 12.5 31.25 9.5
      vertex 24.675 25.325 9.5
    endloop
  endfacet
  facet normal 0 0 1
    outer loop
      vertex 12.5 31.25 9.5
      vertex 11.7678 29.4822 9.5
      vertex 24.675 25.325 9.5
    endloop
  endfacet
  facet normal -1 0 0
    outer loop
      vertex 0.325 25.325 7.5
      vertex 0.325 25.325 9.5
      vertex 0.325 40.8 7.5
    endloop
  endfacet
  facet normal -1 0 0
    outer loop
      vertex 0.325 40.8 7.5
      vertex 0.325 25.325 9.5
      vertex 0.325 40.8 9.5
    endloop
  endfacet
  facet normal 0 -1 0
    outer loop
      vertex 0.325 25.325 9.5
      vertex 0.325 25.325 7.5
      vertex 24.675 25.325 7.5
    endloop
  endfacet
  facet normal 0 -1 0
    outer loop
      vertex 24.675 25.325 9.5
      vertex 0.325 25.325 9.5
      vertex 24.675 25.325 7.5
    endloop
  endfacet
  facet normal 1 0 0
    outer loop
      vertex 24.675 9.2 9.5
      vertex 24.675 9.2 7.5
      vertex 24.675 24.675 7.5
    endloop
  endfacet
  facet normal 1 0 0
    outer loop
      vertex 24.675 24.675 9.5
      vertex 24.675 9.2 9.5
      vertex 24.675 24.675 7.5
    endloop
  endfacet
  facet normal 0 1 0
    outer loop
      vertex 0.325 24.675 7.5
      vertex 0.325 24.675 9.5
      vertex 24.675 24.675 7.5
    endloop
  endfacet
  facet normal 0 1 0
    outer loop
      vertex 24.675 24.675 7.5
      vertex 0.325 24.675 9.5
      vertex 24.675 24.675 9.5
    endloop
  endfacet
  facet normal -1 0 0
    outer loop
      vertex 0.325 9.2 7.5
      vertex 0.325 9.2 9.5
      vertex 0.325 24.675 7.5
    endloop
  endfacet
  facet normal -1 0 0
    outer loop
      vertex 0.325 24.675 7.5
      vertex 0.325 9.2 9.5
      vertex 0.325 24.675 9.5
    endloop
  endfacet
  facet normal 0 0 1
    outer loop
      vertex 8.23223 16.9822 9.5
      vertex 0.325 9.2 9.5
      vertex 24.675 9.2 9.5
    endloop
  endfacet
  facet normal 0 0 1
    outer loop
      vertex 10 16.25 9.5
      vertex 8.23223 16.9822 9.5
      vertex 24.675 9.2 9.5
    endloop
  endfacet
  facet normal 0 0 1
    outer loop
      vertex 0.325 24.675 9.5
      vertex 0.325 9.2 9.5
      vertex 8.23223 16.9822 9.5
    endloop
  endfacet
  facet normal 0 0 1
    outer loop
      vertex 0.325 24.675 9.5
      vertex 8.23223 16.9822 9.5
      vertex 7.5 18.75 9.5
    endloop
  endfacet
  facet normal 0 0 1
    outer loop
      vertex 11.7678 16.9822 9.5
      vertex 10 16.25 9.5
      vertex 24.675 9.2 9.5
    endloop
  endfacet
  facet normal 0 0 1
    outer loop
      vertex 10 21.25 9.5
      vertex 0.325 24.675 9.5
      vertex 8.23223 20.5178 9.5
    endloop
  endfacet
  facet normal 0 0 1
    outer loop
      vertex 12.5 18.75 9.5
      vertex 11.7678 16.9822 9.5
      vertex 24.675 9.2 9.5
    endloop
  endfacet
  facet normal 0 0 1
    outer loop
      vertex 24.675 24.675 9.5
      vertex 0.325 24.675 9.5
      vertex 10 21.25 9.5
    endloop
  endfacet
  facet normal 0 0 1
    outer loop
      vertex 24.675 24.675 9.5
      vertex 11.7678 20.5178 9.5
      vertex 24.675 9.2 9.5
    endloop
  endfacet
  facet normal 0 0 1
    outer loop
      vertex 11.7678 20.5178 9.5
      vertex 12.5 18.75 9.5
      vertex 24.675 9.2 9.5
    endloop
  endfacet
  facet normal 0 0 1
    outer loop
      vertex 10 21.25 9.5
      vertex 11.7678 20.5178 9.5
      vertex 24.675 24.675 9.5
    endloop
  endfacet
  facet normal 0 0 1
    outer loop
      vertex 7.5 18.75 9.5
      vertex 8.23223 20.5178 9.5
      vertex 0.325 24.675 9.5
    endloop
  endfacet
endsolid OpenSCAD_Model
